G04 EAGLE Gerber RS-274X export*
G75*
%MOMM*%
%FSLAX34Y34*%
%LPD*%
%AMOC8*
5,1,8,0,0,1.08239X$1,22.5*%
G01*
%ADD10C,3.101600*%
%ADD11C,0.326897*%
%ADD12C,0.297525*%
%ADD13R,1.371600X1.625600*%
%ADD14C,0.142238*%
%ADD15C,0.412750*%
%ADD16C,0.916431*%
%ADD17C,0.260094*%
%ADD18C,0.801600*%
%ADD19R,0.601600X0.901600*%
%ADD20R,0.851600X0.401600*%
%ADD21C,0.504287*%
%ADD22R,0.401600X0.851600*%
%ADD23R,0.701600X1.301600*%
%ADD24R,2.101600X0.651600*%
%ADD25R,0.651600X2.101600*%
%ADD26R,2.101600X0.971600*%
%ADD27C,0.419859*%
%ADD28R,0.901600X0.901600*%
%ADD29R,1.651600X0.701600*%
%ADD30R,1.901600X1.301600*%
%ADD31R,1.752600X1.752600*%
%ADD32C,1.752600*%


D10*
X20000Y20000D03*
X20000Y528000D03*
X280000Y20000D03*
X280000Y528000D03*
D11*
X183241Y95795D02*
X176603Y95795D01*
X183241Y95795D02*
X183241Y89157D01*
X176603Y89157D01*
X176603Y95795D01*
X176603Y92263D02*
X183241Y92263D01*
X183241Y95369D02*
X176603Y95369D01*
X168001Y95795D02*
X161363Y95795D01*
X168001Y95795D02*
X168001Y89157D01*
X161363Y89157D01*
X161363Y95795D01*
X161363Y92263D02*
X168001Y92263D01*
X168001Y95369D02*
X161363Y95369D01*
X105591Y150839D02*
X98953Y150839D01*
X98953Y157477D01*
X105591Y157477D01*
X105591Y150839D01*
X105591Y153945D02*
X98953Y153945D01*
X98953Y157051D02*
X105591Y157051D01*
X114193Y150839D02*
X120831Y150839D01*
X114193Y150839D02*
X114193Y157477D01*
X120831Y157477D01*
X120831Y150839D01*
X120831Y153945D02*
X114193Y153945D01*
X114193Y157051D02*
X120831Y157051D01*
X140499Y158169D02*
X140499Y151531D01*
X133861Y151531D01*
X133861Y158169D01*
X140499Y158169D01*
X140499Y154637D02*
X133861Y154637D01*
X133861Y157743D02*
X140499Y157743D01*
X140499Y166771D02*
X140499Y173409D01*
X140499Y166771D02*
X133861Y166771D01*
X133861Y173409D01*
X140499Y173409D01*
X140499Y169877D02*
X133861Y169877D01*
X133861Y172983D02*
X140499Y172983D01*
X105591Y165317D02*
X98953Y165317D01*
X98953Y171955D01*
X105591Y171955D01*
X105591Y165317D01*
X105591Y168423D02*
X98953Y168423D01*
X98953Y171529D02*
X105591Y171529D01*
X114193Y165317D02*
X120831Y165317D01*
X114193Y165317D02*
X114193Y171955D01*
X120831Y171955D01*
X120831Y165317D01*
X120831Y168423D02*
X114193Y168423D01*
X114193Y171529D02*
X120831Y171529D01*
X177583Y179979D02*
X177583Y186617D01*
X177583Y179979D02*
X170945Y179979D01*
X170945Y186617D01*
X177583Y186617D01*
X177583Y183085D02*
X170945Y183085D01*
X170945Y186191D02*
X177583Y186191D01*
X177583Y195219D02*
X177583Y201857D01*
X177583Y195219D02*
X170945Y195219D01*
X170945Y201857D01*
X177583Y201857D01*
X177583Y198325D02*
X170945Y198325D01*
X170945Y201431D02*
X177583Y201431D01*
D12*
X104805Y87395D02*
X96763Y87395D01*
X96763Y93437D01*
X104805Y93437D01*
X104805Y87395D01*
X104805Y90221D02*
X96763Y90221D01*
X96763Y93047D02*
X104805Y93047D01*
X120763Y87395D02*
X128805Y87395D01*
X120763Y87395D02*
X120763Y93437D01*
X128805Y93437D01*
X128805Y87395D01*
X128805Y90221D02*
X120763Y90221D01*
X120763Y93047D02*
X128805Y93047D01*
D13*
X126204Y70748D03*
X100804Y70748D03*
D14*
X134963Y34846D02*
X138621Y34846D01*
X134963Y34846D02*
X134963Y47902D01*
X138621Y47902D01*
X138621Y34846D01*
X138621Y36197D02*
X134963Y36197D01*
X134963Y37548D02*
X138621Y37548D01*
X138621Y38899D02*
X134963Y38899D01*
X134963Y40250D02*
X138621Y40250D01*
X138621Y41601D02*
X134963Y41601D01*
X134963Y42952D02*
X138621Y42952D01*
X138621Y44303D02*
X134963Y44303D01*
X134963Y45654D02*
X138621Y45654D01*
X138621Y47005D02*
X134963Y47005D01*
X141567Y34846D02*
X145225Y34846D01*
X141567Y34846D02*
X141567Y47902D01*
X145225Y47902D01*
X145225Y34846D01*
X145225Y36197D02*
X141567Y36197D01*
X141567Y37548D02*
X145225Y37548D01*
X145225Y38899D02*
X141567Y38899D01*
X141567Y40250D02*
X145225Y40250D01*
X145225Y41601D02*
X141567Y41601D01*
X141567Y42952D02*
X145225Y42952D01*
X145225Y44303D02*
X141567Y44303D01*
X141567Y45654D02*
X145225Y45654D01*
X145225Y47005D02*
X141567Y47005D01*
X148171Y34846D02*
X151829Y34846D01*
X148171Y34846D02*
X148171Y47902D01*
X151829Y47902D01*
X151829Y34846D01*
X151829Y36197D02*
X148171Y36197D01*
X148171Y37548D02*
X151829Y37548D01*
X151829Y38899D02*
X148171Y38899D01*
X148171Y40250D02*
X151829Y40250D01*
X151829Y41601D02*
X148171Y41601D01*
X148171Y42952D02*
X151829Y42952D01*
X151829Y44303D02*
X148171Y44303D01*
X148171Y45654D02*
X151829Y45654D01*
X151829Y47005D02*
X148171Y47005D01*
X154775Y34846D02*
X158433Y34846D01*
X154775Y34846D02*
X154775Y47902D01*
X158433Y47902D01*
X158433Y34846D01*
X158433Y36197D02*
X154775Y36197D01*
X154775Y37548D02*
X158433Y37548D01*
X158433Y38899D02*
X154775Y38899D01*
X154775Y40250D02*
X158433Y40250D01*
X158433Y41601D02*
X154775Y41601D01*
X154775Y42952D02*
X158433Y42952D01*
X158433Y44303D02*
X154775Y44303D01*
X154775Y45654D02*
X158433Y45654D01*
X158433Y47005D02*
X154775Y47005D01*
X161379Y34846D02*
X165037Y34846D01*
X161379Y34846D02*
X161379Y47902D01*
X165037Y47902D01*
X165037Y34846D01*
X165037Y36197D02*
X161379Y36197D01*
X161379Y37548D02*
X165037Y37548D01*
X165037Y38899D02*
X161379Y38899D01*
X161379Y40250D02*
X165037Y40250D01*
X165037Y41601D02*
X161379Y41601D01*
X161379Y42952D02*
X165037Y42952D01*
X165037Y44303D02*
X161379Y44303D01*
X161379Y45654D02*
X165037Y45654D01*
X165037Y47005D02*
X161379Y47005D01*
D15*
X123679Y8259D02*
X110281Y8259D01*
X110281Y20641D01*
X123679Y20641D01*
X123679Y8259D01*
X123679Y12181D02*
X110281Y12181D01*
X110281Y16103D02*
X123679Y16103D01*
X123679Y20025D02*
X110281Y20025D01*
X176321Y8259D02*
X189719Y8259D01*
X176321Y8259D02*
X176321Y20641D01*
X189719Y20641D01*
X189719Y8259D01*
X189719Y12181D02*
X176321Y12181D01*
X176321Y16103D02*
X189719Y16103D01*
X189719Y20025D02*
X176321Y20025D01*
D16*
X128654Y40368D02*
X121562Y40368D01*
X121562Y42380D01*
X128654Y42380D01*
X128654Y40368D01*
X171346Y40368D02*
X178438Y40368D01*
X171346Y40368D02*
X171346Y42380D01*
X178438Y42380D01*
X178438Y40368D01*
D17*
X146668Y7622D02*
X133012Y7622D01*
X133012Y21278D01*
X146668Y21278D01*
X146668Y7622D01*
X146668Y10093D02*
X133012Y10093D01*
X133012Y12564D02*
X146668Y12564D01*
X146668Y15035D02*
X133012Y15035D01*
X133012Y17506D02*
X146668Y17506D01*
X146668Y19977D02*
X133012Y19977D01*
X153332Y7622D02*
X166988Y7622D01*
X153332Y7622D02*
X153332Y21278D01*
X166988Y21278D01*
X166988Y7622D01*
X166988Y10093D02*
X153332Y10093D01*
X153332Y12564D02*
X166988Y12564D01*
X166988Y15035D02*
X153332Y15035D01*
X153332Y17506D02*
X166988Y17506D01*
X166988Y19977D02*
X153332Y19977D01*
D18*
X114948Y16990D03*
X114948Y11910D03*
X185052Y16990D03*
X185052Y11910D03*
X123838Y41374D03*
X126378Y41374D03*
X173622Y41374D03*
X176162Y41374D03*
D19*
X106102Y104220D03*
X119102Y104220D03*
X112602Y126220D03*
D11*
X70031Y64987D02*
X63393Y64987D01*
X63393Y71625D01*
X70031Y71625D01*
X70031Y64987D01*
X70031Y68093D02*
X63393Y68093D01*
X63393Y71199D02*
X70031Y71199D01*
X78633Y64987D02*
X85271Y64987D01*
X78633Y64987D02*
X78633Y71625D01*
X85271Y71625D01*
X85271Y64987D01*
X85271Y68093D02*
X78633Y68093D01*
X78633Y71199D02*
X85271Y71199D01*
X178381Y171233D02*
X185019Y171233D01*
X185019Y164595D01*
X178381Y164595D01*
X178381Y171233D01*
X178381Y167701D02*
X185019Y167701D01*
X185019Y170807D02*
X178381Y170807D01*
X169779Y171233D02*
X163141Y171233D01*
X169779Y171233D02*
X169779Y164595D01*
X163141Y164595D01*
X163141Y171233D01*
X163141Y167701D02*
X169779Y167701D01*
X169779Y170807D02*
X163141Y170807D01*
D20*
X119460Y218738D03*
D21*
X127973Y194751D02*
X150947Y194751D01*
X127973Y194751D02*
X127973Y217725D01*
X150947Y217725D01*
X150947Y194751D01*
X150947Y199542D02*
X127973Y199542D01*
X127973Y204333D02*
X150947Y204333D01*
X150947Y209124D02*
X127973Y209124D01*
X127973Y213915D02*
X150947Y213915D01*
D20*
X119460Y213738D03*
X119460Y208738D03*
X119460Y203738D03*
X119460Y198738D03*
X119460Y193738D03*
D22*
X126960Y186238D03*
X131960Y186238D03*
X136960Y186238D03*
X141960Y186238D03*
X146960Y186238D03*
X151960Y186238D03*
D20*
X159460Y193738D03*
X159460Y198738D03*
X159460Y203738D03*
X159460Y208738D03*
X159460Y213738D03*
X159460Y218738D03*
D22*
X151960Y226238D03*
X146960Y226238D03*
X141960Y226238D03*
X136960Y226238D03*
X131960Y226238D03*
X126960Y226238D03*
D23*
X165004Y138870D03*
X184004Y138870D03*
X165004Y112750D03*
X174504Y112750D03*
X184004Y112750D03*
D24*
X62500Y483700D03*
X62500Y471000D03*
X62500Y445600D03*
X62500Y432900D03*
X62500Y420200D03*
X62500Y407500D03*
X62500Y394800D03*
X62500Y382100D03*
X62500Y369400D03*
X62500Y356700D03*
X62500Y344000D03*
X62500Y331300D03*
X62500Y318600D03*
X62500Y305900D03*
X62500Y293200D03*
X62500Y280500D03*
D25*
X80200Y263000D03*
X92900Y263000D03*
X105600Y263000D03*
X118300Y263000D03*
X131000Y263000D03*
X143700Y263000D03*
X156400Y263000D03*
X169100Y263000D03*
X181800Y263000D03*
X194500Y263000D03*
X207200Y263000D03*
X219900Y263000D03*
D24*
X237500Y280500D03*
X237500Y293200D03*
X237500Y305900D03*
X237500Y318600D03*
X237500Y331300D03*
X237500Y344000D03*
X237500Y356700D03*
X237500Y369400D03*
X237500Y382100D03*
X237500Y394800D03*
X237500Y407500D03*
X237500Y420200D03*
X237500Y432900D03*
X237500Y445600D03*
X237500Y471000D03*
X237500Y483700D03*
D11*
X66455Y116669D02*
X59817Y116669D01*
X59817Y123307D01*
X66455Y123307D01*
X66455Y116669D01*
X66455Y119775D02*
X59817Y119775D01*
X59817Y122881D02*
X66455Y122881D01*
X75057Y116669D02*
X81695Y116669D01*
X75057Y116669D02*
X75057Y123307D01*
X81695Y123307D01*
X81695Y116669D01*
X81695Y119775D02*
X75057Y119775D01*
X75057Y122881D02*
X81695Y122881D01*
X41601Y131737D02*
X34963Y131737D01*
X34963Y138375D01*
X41601Y138375D01*
X41601Y131737D01*
X41601Y134843D02*
X34963Y134843D01*
X34963Y137949D02*
X41601Y137949D01*
X50203Y131737D02*
X56841Y131737D01*
X50203Y131737D02*
X50203Y138375D01*
X56841Y138375D01*
X56841Y131737D01*
X56841Y134843D02*
X50203Y134843D01*
X50203Y137949D02*
X56841Y137949D01*
D26*
X208602Y146512D03*
X208602Y100512D03*
D11*
X60183Y227475D02*
X60183Y234113D01*
X60183Y227475D02*
X53545Y227475D01*
X53545Y234113D01*
X60183Y234113D01*
X60183Y230581D02*
X53545Y230581D01*
X53545Y233687D02*
X60183Y233687D01*
X60183Y242715D02*
X60183Y249353D01*
X60183Y242715D02*
X53545Y242715D01*
X53545Y249353D01*
X60183Y249353D01*
X60183Y245821D02*
X53545Y245821D01*
X53545Y248927D02*
X60183Y248927D01*
D27*
X63985Y219256D02*
X67153Y219256D01*
X67153Y216088D01*
X63985Y216088D01*
X63985Y219256D01*
X58263Y219256D02*
X55095Y219256D01*
X58263Y219256D02*
X58263Y216088D01*
X55095Y216088D01*
X55095Y219256D01*
D11*
X68309Y193107D02*
X68309Y186469D01*
X61671Y186469D01*
X61671Y193107D01*
X68309Y193107D01*
X68309Y189575D02*
X61671Y189575D01*
X61671Y192681D02*
X68309Y192681D01*
X68309Y201709D02*
X68309Y208347D01*
X68309Y201709D02*
X61671Y201709D01*
X61671Y208347D01*
X68309Y208347D01*
X68309Y204815D02*
X61671Y204815D01*
X61671Y207921D02*
X68309Y207921D01*
D28*
X241248Y184482D03*
X241248Y199482D03*
X229648Y184482D03*
X229648Y199482D03*
D11*
X240555Y225739D02*
X240555Y232377D01*
X247193Y232377D01*
X247193Y225739D01*
X240555Y225739D01*
X240555Y228845D02*
X247193Y228845D01*
X247193Y231951D02*
X240555Y231951D01*
X240555Y217137D02*
X240555Y210499D01*
X240555Y217137D02*
X247193Y217137D01*
X247193Y210499D01*
X240555Y210499D01*
X240555Y213605D02*
X247193Y213605D01*
X247193Y216711D02*
X240555Y216711D01*
X225823Y225739D02*
X225823Y232377D01*
X232461Y232377D01*
X232461Y225739D01*
X225823Y225739D01*
X225823Y228845D02*
X232461Y228845D01*
X232461Y231951D02*
X225823Y231951D01*
X225823Y217137D02*
X225823Y210499D01*
X225823Y217137D02*
X232461Y217137D01*
X232461Y210499D01*
X225823Y210499D01*
X225823Y213605D02*
X232461Y213605D01*
X232461Y216711D02*
X225823Y216711D01*
X98889Y237199D02*
X92251Y237199D01*
X98889Y237199D02*
X98889Y230561D01*
X92251Y230561D01*
X92251Y237199D01*
X92251Y233667D02*
X98889Y233667D01*
X98889Y236773D02*
X92251Y236773D01*
X83649Y237199D02*
X77011Y237199D01*
X83649Y237199D02*
X83649Y230561D01*
X77011Y230561D01*
X77011Y237199D01*
X77011Y233667D02*
X83649Y233667D01*
X83649Y236773D02*
X77011Y236773D01*
X92251Y223045D02*
X98889Y223045D01*
X98889Y216407D01*
X92251Y216407D01*
X92251Y223045D01*
X92251Y219513D02*
X98889Y219513D01*
X98889Y222619D02*
X92251Y222619D01*
X83649Y223045D02*
X77011Y223045D01*
X83649Y223045D02*
X83649Y216407D01*
X77011Y216407D01*
X77011Y223045D01*
X77011Y219513D02*
X83649Y219513D01*
X83649Y222619D02*
X77011Y222619D01*
X92251Y208891D02*
X98889Y208891D01*
X98889Y202253D01*
X92251Y202253D01*
X92251Y208891D01*
X92251Y205359D02*
X98889Y205359D01*
X98889Y208465D02*
X92251Y208465D01*
X83649Y208891D02*
X77011Y208891D01*
X83649Y208891D02*
X83649Y202253D01*
X77011Y202253D01*
X77011Y208891D01*
X77011Y205359D02*
X83649Y205359D01*
X83649Y208465D02*
X77011Y208465D01*
D26*
X220000Y55512D03*
X220000Y9512D03*
D11*
X223789Y153351D02*
X230427Y153351D01*
X223789Y153351D02*
X223789Y159989D01*
X230427Y159989D01*
X230427Y153351D01*
X230427Y156457D02*
X223789Y156457D01*
X223789Y159563D02*
X230427Y159563D01*
X239029Y153351D02*
X245667Y153351D01*
X239029Y153351D02*
X239029Y159989D01*
X245667Y159989D01*
X245667Y153351D01*
X245667Y156457D02*
X239029Y156457D01*
X239029Y159563D02*
X245667Y159563D01*
D29*
X39660Y105016D03*
X39660Y95016D03*
X39660Y85016D03*
X39660Y75016D03*
D30*
X14410Y62016D03*
X14410Y118016D03*
D31*
X206928Y220312D03*
D32*
X181528Y220312D03*
D11*
X185739Y201981D02*
X185739Y195343D01*
X185739Y201981D02*
X192377Y201981D01*
X192377Y195343D01*
X185739Y195343D01*
X185739Y198449D02*
X192377Y198449D01*
X192377Y201555D02*
X185739Y201555D01*
X185739Y186741D02*
X185739Y180103D01*
X185739Y186741D02*
X192377Y186741D01*
X192377Y180103D01*
X185739Y180103D01*
X185739Y183209D02*
X192377Y183209D01*
X192377Y186315D02*
X185739Y186315D01*
X200053Y195275D02*
X200053Y201913D01*
X206691Y201913D01*
X206691Y195275D01*
X200053Y195275D01*
X200053Y198381D02*
X206691Y198381D01*
X206691Y201487D02*
X200053Y201487D01*
X200053Y186673D02*
X200053Y180035D01*
X200053Y186673D02*
X206691Y186673D01*
X206691Y180035D01*
X200053Y180035D01*
X200053Y183141D02*
X206691Y183141D01*
X206691Y186247D02*
X200053Y186247D01*
D29*
X258318Y75016D03*
X258318Y85016D03*
X258318Y95016D03*
X258318Y105016D03*
D30*
X283568Y118016D03*
X283568Y62016D03*
D11*
X245635Y174769D02*
X238997Y174769D01*
X245635Y174769D02*
X245635Y168131D01*
X238997Y168131D01*
X238997Y174769D01*
X238997Y171237D02*
X245635Y171237D01*
X245635Y174343D02*
X238997Y174343D01*
X230395Y174769D02*
X223757Y174769D01*
X230395Y174769D02*
X230395Y168131D01*
X223757Y168131D01*
X223757Y174769D01*
X223757Y171237D02*
X230395Y171237D01*
X230395Y174343D02*
X223757Y174343D01*
D31*
X14300Y152600D03*
D32*
X14300Y178000D03*
X14300Y203400D03*
X14300Y228800D03*
X14300Y254200D03*
X14300Y279600D03*
X14300Y305000D03*
X14300Y330400D03*
X14300Y355800D03*
X14300Y381200D03*
X14300Y406600D03*
X14300Y432000D03*
X14300Y457400D03*
X14300Y482800D03*
D31*
X285600Y152600D03*
D32*
X285600Y178000D03*
X285600Y203400D03*
X285600Y228800D03*
X285600Y254200D03*
X285600Y279600D03*
X285600Y305000D03*
X285600Y330400D03*
X285600Y355800D03*
X285600Y381200D03*
X285600Y406600D03*
X285600Y432000D03*
X285600Y457400D03*
X285600Y482800D03*
D26*
X80000Y9512D03*
X80000Y55512D03*
D11*
X51681Y54939D02*
X51681Y48301D01*
X51681Y54939D02*
X58319Y54939D01*
X58319Y48301D01*
X51681Y48301D01*
X51681Y51407D02*
X58319Y51407D01*
X58319Y54513D02*
X51681Y54513D01*
X51681Y39699D02*
X51681Y33061D01*
X51681Y39699D02*
X58319Y39699D01*
X58319Y33061D01*
X51681Y33061D01*
X51681Y36167D02*
X58319Y36167D01*
X58319Y39273D02*
X51681Y39273D01*
M02*
