G04 EAGLE Gerber RS-274X export*
G75*
%MOMM*%
%FSLAX34Y34*%
%LPD*%
%AMOC8*
5,1,8,0,0,1.08239X$1,22.5*%
G01*
%ADD10C,3.101600*%
%ADD11C,0.801600*%
%ADD12R,1.574800X1.600200*%
%ADD13R,1.498600X1.701800*%
%ADD14R,1.346200X0.939800*%
%ADD15R,1.371600X0.965200*%
%ADD16R,1.371600X0.736600*%
%ADD17C,0.203200*%
%ADD18R,1.752600X1.752600*%
%ADD19C,1.752600*%


D10*
X20000Y20000D03*
X20000Y528000D03*
X280000Y20000D03*
X280000Y528000D03*
D11*
X114948Y16990D03*
X114948Y11910D03*
X185052Y16990D03*
X185052Y11910D03*
X123838Y41374D03*
X126378Y41374D03*
X173622Y41374D03*
X176162Y41374D03*
D12*
X115964Y14323D03*
D13*
X184417Y14323D03*
D14*
X175019Y41247D03*
D15*
X125108Y41374D03*
D16*
X28100Y106280D03*
X28100Y98152D03*
X28100Y90024D03*
D17*
X28100Y89262D02*
X28100Y106788D01*
D18*
X206928Y220312D03*
D19*
X181528Y220312D03*
D18*
X14300Y152600D03*
D19*
X14300Y178000D03*
X14300Y203400D03*
X14300Y228800D03*
X14300Y254200D03*
X14300Y279600D03*
X14300Y305000D03*
X14300Y330400D03*
X14300Y355800D03*
X14300Y381200D03*
X14300Y406600D03*
X14300Y432000D03*
X14300Y457400D03*
X14300Y482800D03*
D18*
X285600Y152600D03*
D19*
X285600Y178000D03*
X285600Y203400D03*
X285600Y228800D03*
X285600Y254200D03*
X285600Y279600D03*
X285600Y305000D03*
X285600Y330400D03*
X285600Y355800D03*
X285600Y381200D03*
X285600Y406600D03*
X285600Y432000D03*
X285600Y457400D03*
X285600Y482800D03*
M02*
