G04 EAGLE Gerber RS-274X export*
G75*
%MOMM*%
%FSLAX34Y34*%
%LPD*%
%AMOC8*
5,1,8,0,0,1.08239X$1,22.5*%
G01*
%ADD10C,0.101600*%
%ADD11C,0.152400*%
%ADD12C,0.127000*%
%ADD13R,0.120000X0.020000*%
%ADD14R,0.340000X0.020000*%
%ADD15R,0.320000X0.020000*%
%ADD16R,0.140000X0.020000*%
%ADD17R,0.280000X0.020000*%
%ADD18R,0.360000X0.020000*%
%ADD19R,0.420000X0.020000*%
%ADD20R,0.380000X0.020000*%
%ADD21R,0.480000X0.020000*%
%ADD22R,0.540000X0.020000*%
%ADD23R,0.560000X0.020000*%
%ADD24R,0.400000X0.020000*%
%ADD25R,0.640000X0.020000*%
%ADD26R,0.620000X0.020000*%
%ADD27R,0.700000X0.020000*%
%ADD28R,0.660000X0.020000*%
%ADD29R,0.740000X0.020000*%
%ADD30R,1.080000X0.020000*%
%ADD31R,0.800000X0.020000*%
%ADD32R,1.100000X0.020000*%
%ADD33R,0.440000X0.020000*%
%ADD34R,0.840000X0.020000*%
%ADD35R,1.120000X0.020000*%
%ADD36R,0.460000X0.020000*%
%ADD37R,0.860000X0.020000*%
%ADD38R,0.900000X0.020000*%
%ADD39R,1.140000X0.020000*%
%ADD40R,0.920000X0.020000*%
%ADD41R,1.160000X0.020000*%
%ADD42R,0.960000X0.020000*%
%ADD43R,0.500000X0.020000*%
%ADD44R,0.520000X0.020000*%
%ADD45R,0.940000X0.020000*%
%ADD46R,0.260000X0.020000*%
%ADD47R,0.180000X0.020000*%
%ADD48R,0.580000X0.020000*%
%ADD49R,0.060000X0.020000*%
%ADD50R,0.600000X0.020000*%
%ADD51R,0.300000X0.020000*%
%ADD52R,0.040000X0.020000*%
%ADD53R,0.100000X0.020000*%
%ADD54R,0.160000X0.020000*%
%ADD55R,0.220000X0.020000*%
%ADD56R,0.980000X0.020000*%
%ADD57R,0.880000X0.020000*%
%ADD58R,0.760000X0.020000*%
%ADD59R,1.060000X0.020000*%
%ADD60R,0.720000X0.020000*%
%ADD61R,0.820000X0.020000*%
%ADD62R,1.180000X0.020000*%
%ADD63R,1.340000X0.020000*%
%ADD64R,1.460000X0.020000*%
%ADD65R,1.600000X0.020000*%
%ADD66R,1.700000X0.020000*%
%ADD67R,1.820000X0.020000*%
%ADD68R,1.900000X0.020000*%
%ADD69R,1.980000X0.020000*%
%ADD70R,2.100000X0.020000*%
%ADD71R,2.160000X0.020000*%
%ADD72R,2.260000X0.020000*%
%ADD73R,2.340000X0.020000*%
%ADD74R,2.400000X0.020000*%
%ADD75R,2.480000X0.020000*%
%ADD76R,2.540000X0.020000*%
%ADD77R,2.600000X0.020000*%
%ADD78R,2.680000X0.020000*%
%ADD79R,2.720000X0.020000*%
%ADD80R,2.800000X0.020000*%
%ADD81R,2.840000X0.020000*%
%ADD82R,2.900000X0.020000*%
%ADD83R,2.960000X0.020000*%
%ADD84R,3.000000X0.020000*%
%ADD85R,3.060000X0.020000*%
%ADD86R,3.120000X0.020000*%
%ADD87R,3.160000X0.020000*%
%ADD88R,3.200000X0.020000*%
%ADD89R,3.260000X0.020000*%
%ADD90R,3.300000X0.020000*%
%ADD91R,3.340000X0.020000*%
%ADD92R,3.380000X0.020000*%
%ADD93R,3.420000X0.020000*%
%ADD94R,3.460000X0.020000*%
%ADD95R,3.520000X0.020000*%
%ADD96R,3.540000X0.020000*%
%ADD97R,3.580000X0.020000*%
%ADD98R,3.620000X0.020000*%
%ADD99R,3.660000X0.020000*%
%ADD100R,3.700000X0.020000*%
%ADD101R,3.740000X0.020000*%
%ADD102R,3.780000X0.020000*%
%ADD103R,3.800000X0.020000*%
%ADD104R,3.840000X0.020000*%
%ADD105R,3.860000X0.020000*%
%ADD106R,3.900000X0.020000*%
%ADD107R,3.940000X0.020000*%
%ADD108R,3.960000X0.020000*%
%ADD109R,3.980000X0.020000*%
%ADD110R,4.020000X0.020000*%
%ADD111R,4.060000X0.020000*%
%ADD112R,4.080000X0.020000*%
%ADD113R,4.100000X0.020000*%
%ADD114R,4.120000X0.020000*%
%ADD115R,4.160000X0.020000*%
%ADD116R,4.180000X0.020000*%
%ADD117R,4.200000X0.020000*%
%ADD118R,4.240000X0.020000*%
%ADD119R,4.260000X0.020000*%
%ADD120R,4.280000X0.020000*%
%ADD121R,4.300000X0.020000*%
%ADD122R,4.320000X0.020000*%
%ADD123R,4.340000X0.020000*%
%ADD124R,4.380000X0.020000*%
%ADD125R,4.400000X0.020000*%
%ADD126R,4.440000X0.020000*%
%ADD127R,4.460000X0.020000*%
%ADD128R,4.500000X0.020000*%
%ADD129R,4.520000X0.020000*%
%ADD130R,4.540000X0.020000*%
%ADD131R,4.560000X0.020000*%
%ADD132R,4.580000X0.020000*%
%ADD133R,4.600000X0.020000*%
%ADD134R,4.620000X0.020000*%
%ADD135R,4.640000X0.020000*%
%ADD136R,4.660000X0.020000*%
%ADD137R,4.680000X0.020000*%
%ADD138R,4.700000X0.020000*%
%ADD139R,4.720000X0.020000*%
%ADD140R,4.740000X0.020000*%
%ADD141R,0.680000X0.020000*%
%ADD142R,1.480000X0.020000*%
%ADD143R,1.580000X0.020000*%
%ADD144R,1.560000X0.020000*%
%ADD145R,1.540000X0.020000*%
%ADD146R,1.520000X0.020000*%
%ADD147R,1.500000X0.020000*%
%ADD148R,1.440000X0.020000*%
%ADD149R,1.400000X0.020000*%
%ADD150R,1.420000X0.020000*%
%ADD151R,1.380000X0.020000*%
%ADD152R,1.360000X0.020000*%
%ADD153R,1.320000X0.020000*%
%ADD154R,1.300000X0.020000*%
%ADD155R,1.260000X0.020000*%
%ADD156R,1.220000X0.020000*%
%ADD157R,1.200000X0.020000*%
%ADD158R,1.040000X0.020000*%
%ADD159R,1.020000X0.020000*%
%ADD160R,1.000000X0.020000*%
%ADD161R,1.280000X0.020000*%
%ADD162R,0.780000X0.020000*%
%ADD163R,1.240000X0.020000*%
%ADD164R,0.020000X0.020000*%
%ADD165R,1.840000X0.020000*%
%ADD166R,1.800000X0.020000*%
%ADD167R,1.780000X0.020000*%
%ADD168R,1.760000X0.020000*%
%ADD169R,1.740000X0.020000*%
%ADD170R,1.680000X0.020000*%
%ADD171R,1.660000X0.020000*%
%ADD172R,1.620000X0.020000*%

G36*
X193737Y408834D02*
X193737Y408834D01*
X193736Y408834D01*
X193737Y408835D01*
X193734Y411225D01*
X193729Y413612D01*
X193726Y416001D01*
X193721Y418391D01*
X193718Y420778D01*
X193713Y423167D01*
X193710Y425554D01*
X193710Y425557D01*
X193705Y427944D01*
X193702Y430334D01*
X193700Y432721D01*
X193694Y435110D01*
X193692Y437497D01*
X193686Y439887D01*
X193684Y442274D01*
X193679Y442280D01*
X193678Y442284D01*
X191376Y443618D01*
X189074Y444951D01*
X186775Y446285D01*
X182172Y448952D01*
X179873Y450285D01*
X175270Y452952D01*
X172971Y454286D01*
X170669Y455619D01*
X168362Y456958D01*
X166056Y458294D01*
X163751Y459630D01*
X161444Y460969D01*
X159137Y462308D01*
X156833Y463644D01*
X154526Y464983D01*
X152222Y466322D01*
X149915Y467663D01*
X147634Y468996D01*
X150028Y470032D01*
X152453Y471061D01*
X154877Y472088D01*
X157304Y473112D01*
X159731Y474133D01*
X162158Y475155D01*
X164585Y476174D01*
X167014Y477195D01*
X169441Y478211D01*
X171748Y479179D01*
X174052Y480148D01*
X176359Y481113D01*
X178664Y482081D01*
X180971Y483047D01*
X183275Y484015D01*
X185582Y484983D01*
X187886Y485951D01*
X190193Y486919D01*
X192497Y487887D01*
X192498Y487887D01*
X193676Y488389D01*
X193679Y488394D01*
X193683Y488398D01*
X193682Y488400D01*
X193683Y488403D01*
X193676Y488406D01*
X193672Y488412D01*
X188370Y488412D01*
X185719Y488414D01*
X161862Y488414D01*
X159211Y488417D01*
X138009Y488417D01*
X135358Y488420D01*
X114152Y488420D01*
X114141Y488409D01*
X114141Y488408D01*
X114140Y488408D01*
X114143Y486015D01*
X114148Y483620D01*
X114151Y481228D01*
X114156Y478833D01*
X114159Y476441D01*
X114162Y474046D01*
X114167Y471651D01*
X114170Y469259D01*
X114175Y466864D01*
X114178Y464471D01*
X114183Y462076D01*
X114186Y459684D01*
X114191Y457289D01*
X114194Y454894D01*
X114199Y454888D01*
X114200Y454884D01*
X116496Y453556D01*
X118790Y452225D01*
X121086Y450897D01*
X123382Y449566D01*
X125676Y448235D01*
X127972Y446907D01*
X130266Y445576D01*
X132562Y444245D01*
X134858Y442917D01*
X137152Y441586D01*
X144057Y437586D01*
X146358Y436249D01*
X150962Y433582D01*
X153261Y432246D01*
X155562Y430913D01*
X157861Y429574D01*
X160140Y428247D01*
X157716Y427192D01*
X155260Y426150D01*
X152806Y425112D01*
X150350Y424075D01*
X147891Y423040D01*
X145432Y422005D01*
X142973Y420973D01*
X140514Y419941D01*
X138209Y418975D01*
X135902Y418007D01*
X133596Y417039D01*
X131289Y416074D01*
X128984Y415106D01*
X126677Y414137D01*
X124370Y413172D01*
X122066Y412204D01*
X119759Y411236D01*
X117455Y410268D01*
X115775Y409561D01*
X114094Y408854D01*
X114092Y408849D01*
X114087Y408845D01*
X114089Y408843D01*
X114088Y408840D01*
X114094Y408837D01*
X114099Y408831D01*
X119406Y408831D01*
X122060Y408828D01*
X156566Y408828D01*
X159219Y408826D01*
X191071Y408826D01*
X193725Y408823D01*
X193737Y408834D01*
G37*
G36*
X162522Y387682D02*
X162522Y387682D01*
X163911Y387751D01*
X163913Y387753D01*
X163914Y387752D01*
X166099Y388501D01*
X166100Y388503D01*
X166102Y388503D01*
X168001Y389812D01*
X168001Y389814D01*
X168003Y389814D01*
X169459Y391604D01*
X169459Y391606D01*
X169461Y391607D01*
X170333Y393741D01*
X170332Y393743D01*
X170334Y393744D01*
X170515Y395763D01*
X170514Y395764D01*
X170515Y395765D01*
X170286Y397776D01*
X170284Y397778D01*
X170285Y397780D01*
X169258Y400076D01*
X169256Y400077D01*
X169256Y400079D01*
X167600Y401973D01*
X167598Y401973D01*
X167597Y401975D01*
X166066Y402914D01*
X166065Y402914D01*
X166065Y402915D01*
X164395Y403584D01*
X164393Y403583D01*
X164392Y403585D01*
X162522Y403756D01*
X162208Y403785D01*
X162206Y403784D01*
X162205Y403785D01*
X160018Y403593D01*
X160017Y403591D01*
X160015Y403592D01*
X158137Y402827D01*
X158137Y402825D01*
X158135Y402826D01*
X156455Y401695D01*
X156454Y401693D01*
X156453Y401693D01*
X155028Y400004D01*
X155028Y400002D01*
X155026Y400001D01*
X154160Y397972D01*
X154160Y397970D01*
X154159Y397968D01*
X153895Y395774D01*
X153896Y395772D01*
X153895Y395771D01*
X154036Y393958D01*
X154038Y393956D01*
X154037Y393954D01*
X154661Y392248D01*
X154663Y392247D01*
X154662Y392245D01*
X155929Y390325D01*
X155931Y390324D01*
X155931Y390322D01*
X157691Y388845D01*
X157694Y388845D01*
X157694Y388843D01*
X159804Y387920D01*
X159806Y387921D01*
X159807Y387919D01*
X161850Y387647D01*
X161851Y387648D01*
X161852Y387647D01*
X162522Y387682D01*
G37*
G36*
X193737Y387930D02*
X193737Y387930D01*
X193736Y387930D01*
X193737Y387931D01*
X193732Y389238D01*
X193726Y390545D01*
X193723Y390549D01*
X193723Y390553D01*
X192297Y392206D01*
X189443Y395513D01*
X188016Y397167D01*
X185179Y400454D01*
X187215Y400467D01*
X189279Y400481D01*
X191341Y400494D01*
X193405Y400510D01*
X193417Y400521D01*
X193416Y400521D01*
X193417Y400522D01*
X193417Y403504D01*
X193406Y403516D01*
X193406Y403515D01*
X193405Y403516D01*
X180603Y403516D01*
X180592Y403505D01*
X180592Y403504D01*
X180591Y403504D01*
X180591Y400994D01*
X180595Y400990D01*
X180594Y400986D01*
X182032Y399317D01*
X183469Y397647D01*
X184904Y395975D01*
X186342Y394305D01*
X187777Y392636D01*
X189197Y390983D01*
X188560Y390975D01*
X188558Y390975D01*
X187601Y390963D01*
X187599Y390963D01*
X187081Y390957D01*
X186642Y390951D01*
X186640Y390951D01*
X185683Y390939D01*
X185681Y390939D01*
X185680Y390939D01*
X184940Y390930D01*
X184724Y390927D01*
X184722Y390927D01*
X183766Y390915D01*
X183764Y390915D01*
X182808Y390904D01*
X182806Y390904D01*
X182806Y390903D01*
X182798Y390903D01*
X181849Y390892D01*
X181847Y390892D01*
X180890Y390880D01*
X180888Y390880D01*
X180657Y390877D01*
X180645Y390866D01*
X180645Y390865D01*
X180615Y389398D01*
X180586Y387931D01*
X180596Y387919D01*
X180597Y387920D01*
X180598Y387919D01*
X193725Y387919D01*
X193737Y387930D01*
G37*
G36*
X138700Y387762D02*
X138700Y387762D01*
X138702Y387764D01*
X138704Y387763D01*
X141024Y388621D01*
X141025Y388624D01*
X141027Y388623D01*
X142969Y390154D01*
X142969Y390156D01*
X142971Y390157D01*
X144342Y392216D01*
X144342Y392218D01*
X144343Y392218D01*
X144906Y393893D01*
X144906Y393894D01*
X144905Y393895D01*
X144907Y393896D01*
X145035Y395665D01*
X145034Y395666D01*
X145035Y395666D01*
X144880Y397595D01*
X144878Y397596D01*
X144879Y397598D01*
X144194Y399403D01*
X144192Y399404D01*
X144193Y399406D01*
X143049Y401169D01*
X143046Y401169D01*
X143046Y401171D01*
X141449Y402534D01*
X141447Y402534D01*
X141446Y402536D01*
X139542Y403427D01*
X139540Y403426D01*
X139540Y403427D01*
X138201Y403753D01*
X138199Y403752D01*
X138198Y403753D01*
X137969Y403756D01*
X137967Y403756D01*
X137087Y403768D01*
X137085Y403768D01*
X136819Y403772D01*
X136819Y403771D01*
X136819Y403772D01*
X136667Y403768D01*
X136666Y403768D01*
X136164Y403756D01*
X136163Y403756D01*
X135661Y403744D01*
X135659Y403744D01*
X135469Y403740D01*
X135468Y403739D01*
X135467Y403739D01*
X134150Y403473D01*
X134149Y403472D01*
X134148Y403472D01*
X132670Y402883D01*
X132669Y402881D01*
X132668Y402882D01*
X131351Y401993D01*
X131350Y401990D01*
X131347Y401990D01*
X130867Y401224D01*
X130869Y401215D01*
X130868Y401210D01*
X131857Y400048D01*
X131858Y400047D01*
X132882Y398911D01*
X132888Y398910D01*
X132889Y398909D01*
X132894Y398909D01*
X132894Y398910D01*
X132898Y398909D01*
X132898Y398910D01*
X133489Y399344D01*
X135215Y400326D01*
X137176Y400587D01*
X138609Y400289D01*
X139835Y399492D01*
X141033Y397773D01*
X141442Y395719D01*
X141033Y393662D01*
X139835Y391946D01*
X138599Y391145D01*
X137152Y390848D01*
X135183Y391079D01*
X133465Y392086D01*
X132773Y392626D01*
X132757Y392625D01*
X131663Y391540D01*
X130573Y390452D01*
X130572Y390448D01*
X130572Y390447D01*
X130572Y390436D01*
X130573Y390436D01*
X130573Y390435D01*
X131077Y389918D01*
X131078Y389918D01*
X131078Y389917D01*
X132291Y388938D01*
X132293Y388938D01*
X132293Y388937D01*
X133658Y388182D01*
X133661Y388183D01*
X133662Y388181D01*
X136153Y387653D01*
X136154Y387654D01*
X136156Y387652D01*
X138700Y387762D01*
G37*
G36*
X121674Y387676D02*
X121674Y387676D01*
X121675Y387678D01*
X121677Y387677D01*
X124021Y388394D01*
X124022Y388396D01*
X124024Y388396D01*
X126105Y389825D01*
X126105Y389828D01*
X126107Y389828D01*
X127612Y391852D01*
X127611Y391855D01*
X127613Y391856D01*
X128416Y394251D01*
X128415Y394253D01*
X128417Y394254D01*
X128473Y396777D01*
X128471Y396779D01*
X128472Y396779D01*
X128471Y396779D01*
X128472Y396781D01*
X127766Y399205D01*
X127763Y399207D01*
X127764Y399209D01*
X126337Y401289D01*
X126335Y401289D01*
X126335Y401291D01*
X124430Y402801D01*
X124428Y402801D01*
X124427Y402803D01*
X122150Y403648D01*
X122147Y403647D01*
X122146Y403649D01*
X119719Y403806D01*
X119718Y403805D01*
X119716Y403806D01*
X117116Y403310D01*
X117114Y403308D01*
X117112Y403309D01*
X114813Y401999D01*
X114812Y401996D01*
X114810Y401996D01*
X114276Y401284D01*
X114277Y401272D01*
X114277Y401269D01*
X115293Y400074D01*
X116341Y398911D01*
X116357Y398909D01*
X117061Y399416D01*
X118445Y400244D01*
X120018Y400587D01*
X121965Y400337D01*
X123579Y399223D01*
X124747Y397022D01*
X124768Y394527D01*
X123648Y392300D01*
X122138Y391185D01*
X120292Y390826D01*
X118485Y391140D01*
X116906Y392088D01*
X116219Y392616D01*
X116203Y392615D01*
X115173Y391583D01*
X115173Y391582D01*
X114143Y390433D01*
X114143Y390417D01*
X114144Y390417D01*
X114144Y390416D01*
X115851Y388850D01*
X115854Y388850D01*
X115854Y388848D01*
X117681Y388016D01*
X117683Y388017D01*
X117684Y388015D01*
X119660Y387637D01*
X119662Y387638D01*
X119663Y387636D01*
X121674Y387676D01*
G37*
%LPC*%
G36*
X163073Y390953D02*
X163073Y390953D01*
X162695Y390965D01*
X162521Y390970D01*
X162285Y390978D01*
X161913Y390990D01*
X161912Y390990D01*
X161540Y391002D01*
X161168Y391013D01*
X161167Y391013D01*
X160796Y391025D01*
X160795Y391025D01*
X160778Y391026D01*
X158613Y392465D01*
X157636Y394466D01*
X157591Y396690D01*
X158485Y398725D01*
X160193Y400148D01*
X162209Y400614D01*
X162519Y400548D01*
X164236Y400178D01*
X165858Y398893D01*
X166822Y396719D01*
X166723Y394343D01*
X165558Y392274D01*
X163363Y390944D01*
X163073Y390953D01*
G37*
%LPD*%
G36*
X177204Y387930D02*
X177204Y387930D01*
X177203Y387930D01*
X177204Y387931D01*
X177204Y403504D01*
X177194Y403516D01*
X177193Y403515D01*
X177192Y403516D01*
X173778Y403516D01*
X173767Y403505D01*
X173767Y403504D01*
X173767Y387931D01*
X173777Y387919D01*
X173778Y387920D01*
X173778Y387919D01*
X177192Y387919D01*
X177204Y387930D01*
G37*
G36*
X151284Y387930D02*
X151284Y387930D01*
X151283Y387930D01*
X151284Y387931D01*
X151284Y391452D01*
X151273Y391463D01*
X151272Y391463D01*
X147645Y391463D01*
X147633Y391453D01*
X147633Y391452D01*
X147633Y387931D01*
X147643Y387919D01*
X147644Y387920D01*
X147645Y387919D01*
X151272Y387919D01*
X151284Y387930D01*
G37*
D10*
X248158Y532138D02*
X242057Y532138D01*
X242057Y530613D01*
X248158Y524511D01*
X248158Y522986D01*
X242057Y522986D01*
X238803Y529087D02*
X237278Y529087D01*
X237278Y522986D01*
X238803Y522986D02*
X235752Y522986D01*
X237278Y532138D02*
X237278Y533663D01*
X231041Y522986D02*
X227990Y522986D01*
X226465Y524511D01*
X226465Y527562D01*
X227990Y529087D01*
X231041Y529087D01*
X232566Y527562D01*
X232566Y524511D01*
X231041Y522986D01*
X213856Y522986D02*
X213856Y529087D01*
X209280Y529087D01*
X207754Y527562D01*
X207754Y522986D01*
X204500Y522986D02*
X204500Y532138D01*
X199925Y532138D01*
X198399Y530613D01*
X198399Y527562D01*
X199925Y526037D01*
X204500Y526037D01*
X201450Y526037D02*
X198399Y522986D01*
X195145Y522986D02*
X195145Y532138D01*
X189044Y532138D01*
X192095Y527562D02*
X195145Y527562D01*
X185790Y532138D02*
X179689Y532138D01*
X185790Y532138D02*
X185790Y527562D01*
X182740Y529087D01*
X181214Y529087D01*
X179689Y527562D01*
X179689Y524511D01*
X181214Y522986D01*
X184265Y522986D01*
X185790Y524511D01*
X176435Y522986D02*
X170334Y522986D01*
X176435Y522986D02*
X170334Y529087D01*
X170334Y530613D01*
X171859Y532138D01*
X174910Y532138D01*
X176435Y530613D01*
X167080Y530613D02*
X165554Y532138D01*
X162504Y532138D01*
X160979Y530613D01*
X160979Y529087D01*
X162504Y527562D01*
X160979Y526037D01*
X160979Y524511D01*
X162504Y522986D01*
X165554Y522986D01*
X167080Y524511D01*
X167080Y526037D01*
X165554Y527562D01*
X167080Y529087D01*
X167080Y530613D01*
X165554Y527562D02*
X162504Y527562D01*
X157725Y530613D02*
X156199Y532138D01*
X153149Y532138D01*
X151623Y530613D01*
X151623Y529087D01*
X153149Y527562D01*
X154674Y527562D01*
X153149Y527562D02*
X151623Y526037D01*
X151623Y524511D01*
X153149Y522986D01*
X156199Y522986D01*
X157725Y524511D01*
X148369Y522986D02*
X142268Y522986D01*
X148369Y522986D02*
X142268Y529087D01*
X142268Y530613D01*
X143793Y532138D01*
X146844Y532138D01*
X148369Y530613D01*
X129659Y532138D02*
X129659Y522986D01*
X125083Y522986D01*
X123558Y524511D01*
X123558Y530613D01*
X125083Y532138D01*
X129659Y532138D01*
X118779Y522986D02*
X115728Y522986D01*
X118779Y522986D02*
X120304Y524511D01*
X120304Y527562D01*
X118779Y529087D01*
X115728Y529087D01*
X114203Y527562D01*
X114203Y526037D01*
X120304Y526037D01*
X110949Y529087D02*
X107898Y522986D01*
X104847Y529087D01*
X92238Y532138D02*
X92238Y522986D01*
X92238Y532138D02*
X87662Y532138D01*
X86137Y530613D01*
X86137Y529087D01*
X87662Y527562D01*
X86137Y526037D01*
X86137Y524511D01*
X87662Y522986D01*
X92238Y522986D01*
X92238Y527562D02*
X87662Y527562D01*
X81358Y522986D02*
X78307Y522986D01*
X76782Y524511D01*
X76782Y527562D01*
X78307Y529087D01*
X81358Y529087D01*
X82883Y527562D01*
X82883Y524511D01*
X81358Y522986D01*
X72003Y529087D02*
X68952Y529087D01*
X67427Y527562D01*
X67427Y522986D01*
X72003Y522986D01*
X73528Y524511D01*
X72003Y526037D01*
X67427Y526037D01*
X64173Y529087D02*
X64173Y522986D01*
X64173Y526037D02*
X61122Y529087D01*
X59597Y529087D01*
X50276Y532138D02*
X50276Y522986D01*
X54851Y522986D01*
X56377Y524511D01*
X56377Y527562D01*
X54851Y529087D01*
X50276Y529087D01*
X248158Y515373D02*
X248158Y509271D01*
X248158Y515373D02*
X246633Y516898D01*
X243582Y516898D01*
X242057Y515373D01*
X242057Y509271D01*
X243582Y507746D01*
X246633Y507746D01*
X248158Y509271D01*
X245107Y510797D02*
X242057Y507746D01*
X238803Y509271D02*
X238803Y513847D01*
X238803Y509271D02*
X237278Y507746D01*
X235752Y509271D01*
X234227Y507746D01*
X232702Y509271D01*
X232702Y513847D01*
X229448Y513847D02*
X227922Y513847D01*
X227922Y507746D01*
X226397Y507746D02*
X229448Y507746D01*
X227922Y516898D02*
X227922Y518423D01*
X223211Y513847D02*
X221686Y513847D01*
X221686Y507746D01*
X223211Y507746D02*
X220160Y507746D01*
X221686Y516898D02*
X221686Y518423D01*
X215449Y513847D02*
X210873Y513847D01*
X215449Y513847D02*
X216974Y512322D01*
X216974Y509271D01*
X215449Y507746D01*
X210873Y507746D01*
X207619Y504695D02*
X204568Y507746D01*
X204568Y509271D01*
X206094Y509271D01*
X206094Y507746D01*
X204568Y507746D01*
X192027Y507746D02*
X192027Y516898D01*
X187451Y516898D01*
X185926Y515373D01*
X185926Y513847D01*
X187451Y512322D01*
X185926Y510797D01*
X185926Y509271D01*
X187451Y507746D01*
X192027Y507746D01*
X192027Y512322D02*
X187451Y512322D01*
X182672Y516898D02*
X182672Y507746D01*
X176571Y507746D01*
X173317Y516898D02*
X167215Y516898D01*
X173317Y516898D02*
X173317Y507746D01*
X167215Y507746D01*
X170266Y512322D02*
X173317Y512322D01*
X163961Y504695D02*
X160911Y507746D01*
X160911Y509271D01*
X162436Y509271D01*
X162436Y507746D01*
X160911Y507746D01*
X148369Y507746D02*
X148369Y516898D01*
X142268Y507746D01*
X142268Y516898D01*
X139014Y516898D02*
X139014Y507746D01*
X139014Y516898D02*
X132913Y516898D01*
X135964Y512322D02*
X139014Y512322D01*
X125083Y516898D02*
X123558Y515373D01*
X125083Y516898D02*
X128134Y516898D01*
X129659Y515373D01*
X129659Y509271D01*
X128134Y507746D01*
X125083Y507746D01*
X123558Y509271D01*
X120304Y504695D02*
X117253Y507746D01*
X117253Y509271D01*
X118779Y509271D01*
X118779Y507746D01*
X117253Y507746D01*
X104712Y515373D02*
X103187Y516898D01*
X100136Y516898D01*
X98611Y515373D01*
X98611Y513847D01*
X100136Y512322D01*
X101661Y512322D01*
X100136Y512322D02*
X98611Y510797D01*
X98611Y509271D01*
X100136Y507746D01*
X103187Y507746D01*
X104712Y509271D01*
X95357Y509271D02*
X95357Y507746D01*
X95357Y509271D02*
X93831Y509271D01*
X93831Y507746D01*
X95357Y507746D01*
X90679Y515373D02*
X89154Y516898D01*
X86103Y516898D01*
X84578Y515373D01*
X84578Y513847D01*
X86103Y512322D01*
X87628Y512322D01*
X86103Y512322D02*
X84578Y510797D01*
X84578Y509271D01*
X86103Y507746D01*
X89154Y507746D01*
X90679Y509271D01*
X81324Y510797D02*
X81324Y516898D01*
X81324Y510797D02*
X78273Y507746D01*
X75223Y510797D01*
X75223Y516898D01*
X262631Y478536D02*
X268732Y478536D01*
X262631Y484637D01*
X262631Y486163D01*
X264156Y487688D01*
X267207Y487688D01*
X268732Y486163D01*
X259377Y487688D02*
X253276Y487688D01*
X253276Y486163D01*
X259377Y480061D01*
X259377Y478536D01*
X262631Y453136D02*
X268732Y453136D01*
X262631Y459237D01*
X262631Y460763D01*
X264156Y462288D01*
X267207Y462288D01*
X268732Y460763D01*
X254801Y462288D02*
X254801Y453136D01*
X259377Y457712D02*
X254801Y462288D01*
X253276Y457712D02*
X259377Y457712D01*
X262631Y427736D02*
X268732Y427736D01*
X262631Y433837D01*
X262631Y435363D01*
X264156Y436888D01*
X267207Y436888D01*
X268732Y435363D01*
X259377Y435363D02*
X257852Y436888D01*
X254801Y436888D01*
X253276Y435363D01*
X253276Y433837D01*
X254801Y432312D01*
X256326Y432312D01*
X254801Y432312D02*
X253276Y430787D01*
X253276Y429261D01*
X254801Y427736D01*
X257852Y427736D01*
X259377Y429261D01*
X262631Y402336D02*
X268732Y402336D01*
X262631Y408437D01*
X262631Y409963D01*
X264156Y411488D01*
X267207Y411488D01*
X268732Y409963D01*
X259377Y402336D02*
X253276Y402336D01*
X259377Y402336D02*
X253276Y408437D01*
X253276Y409963D01*
X254801Y411488D01*
X257852Y411488D01*
X259377Y409963D01*
X265681Y386088D02*
X268732Y383037D01*
X265681Y386088D02*
X265681Y376936D01*
X262631Y376936D02*
X268732Y376936D01*
X256326Y384563D02*
X253276Y386088D01*
X256326Y384563D02*
X259377Y381512D01*
X259377Y378461D01*
X257852Y376936D01*
X254801Y376936D01*
X253276Y378461D01*
X253276Y379987D01*
X254801Y381512D01*
X259377Y381512D01*
X265681Y360688D02*
X268732Y357637D01*
X265681Y360688D02*
X265681Y351536D01*
X262631Y351536D02*
X268732Y351536D01*
X259377Y360688D02*
X253276Y360688D01*
X259377Y360688D02*
X259377Y356112D01*
X256326Y357637D01*
X254801Y357637D01*
X253276Y356112D01*
X253276Y353061D01*
X254801Y351536D01*
X257852Y351536D01*
X259377Y353061D01*
X268732Y335288D02*
X268732Y326136D01*
X265681Y332237D02*
X268732Y335288D01*
X265681Y332237D02*
X262631Y335288D01*
X262631Y326136D01*
X259377Y326136D02*
X256326Y326136D01*
X257852Y326136D02*
X257852Y335288D01*
X259377Y335288D02*
X256326Y335288D01*
X248564Y335288D02*
X247039Y333763D01*
X248564Y335288D02*
X251615Y335288D01*
X253140Y333763D01*
X253140Y332237D01*
X251615Y330712D01*
X248564Y330712D01*
X247039Y329187D01*
X247039Y327661D01*
X248564Y326136D01*
X251615Y326136D01*
X253140Y327661D01*
X242260Y335288D02*
X239209Y335288D01*
X242260Y335288D02*
X243785Y333763D01*
X243785Y327661D01*
X242260Y326136D01*
X239209Y326136D01*
X237684Y327661D01*
X237684Y333763D01*
X239209Y335288D01*
X268732Y309888D02*
X268732Y300736D01*
X265681Y306837D02*
X268732Y309888D01*
X265681Y306837D02*
X262631Y309888D01*
X262631Y300736D01*
X257852Y309888D02*
X254801Y309888D01*
X257852Y309888D02*
X259377Y308363D01*
X259377Y302261D01*
X257852Y300736D01*
X254801Y300736D01*
X253276Y302261D01*
X253276Y308363D01*
X254801Y309888D01*
X245446Y309888D02*
X243920Y308363D01*
X245446Y309888D02*
X248496Y309888D01*
X250022Y308363D01*
X250022Y306837D01*
X248496Y305312D01*
X245446Y305312D01*
X243920Y303787D01*
X243920Y302261D01*
X245446Y300736D01*
X248496Y300736D01*
X250022Y302261D01*
X240666Y300736D02*
X237616Y300736D01*
X239141Y300736D02*
X239141Y309888D01*
X240666Y309888D02*
X237616Y309888D01*
X264156Y284488D02*
X262631Y282963D01*
X264156Y284488D02*
X267207Y284488D01*
X268732Y282963D01*
X268732Y281437D01*
X267207Y279912D01*
X264156Y279912D01*
X262631Y278387D01*
X262631Y276861D01*
X264156Y275336D01*
X267207Y275336D01*
X268732Y276861D01*
X254801Y284488D02*
X253276Y282963D01*
X254801Y284488D02*
X257852Y284488D01*
X259377Y282963D01*
X259377Y276861D01*
X257852Y275336D01*
X254801Y275336D01*
X253276Y276861D01*
X250022Y275336D02*
X250022Y284488D01*
X250022Y278387D02*
X243920Y284488D01*
X248496Y279912D02*
X243920Y275336D01*
X265681Y259088D02*
X268732Y256037D01*
X265681Y259088D02*
X265681Y249936D01*
X262631Y249936D02*
X268732Y249936D01*
X259377Y256037D02*
X256326Y259088D01*
X256326Y249936D01*
X253276Y249936D02*
X259377Y249936D01*
X268732Y233688D02*
X268732Y224536D01*
X268732Y233688D02*
X264156Y233688D01*
X262631Y232163D01*
X262631Y229112D01*
X264156Y227587D01*
X268732Y227587D01*
X265681Y227587D02*
X262631Y224536D01*
X253276Y224536D02*
X259377Y233688D01*
X253276Y233688D02*
X259377Y224536D01*
X250022Y224536D02*
X250022Y233688D01*
X250022Y224536D02*
X245446Y224536D01*
X243920Y226061D01*
X243920Y232163D01*
X245446Y233688D01*
X250022Y233688D01*
X265681Y208288D02*
X265681Y199136D01*
X262631Y208288D02*
X268732Y208288D01*
X259377Y208288D02*
X253276Y199136D01*
X259377Y199136D02*
X253276Y208288D01*
X250022Y208288D02*
X250022Y199136D01*
X245446Y199136D01*
X243920Y200661D01*
X243920Y206763D01*
X245446Y208288D01*
X250022Y208288D01*
X268732Y182888D02*
X268732Y173736D01*
X268732Y182888D02*
X264156Y182888D01*
X262631Y181363D01*
X262631Y178312D01*
X264156Y176787D01*
X268732Y176787D01*
X265681Y176787D02*
X262631Y173736D01*
X254801Y182888D02*
X253276Y181363D01*
X254801Y182888D02*
X257852Y182888D01*
X259377Y181363D01*
X259377Y179837D01*
X257852Y178312D01*
X254801Y178312D01*
X253276Y176787D01*
X253276Y175261D01*
X254801Y173736D01*
X257852Y173736D01*
X259377Y175261D01*
X246971Y173736D02*
X246971Y182888D01*
X250022Y182888D02*
X243920Y182888D01*
X264156Y157488D02*
X262631Y155963D01*
X264156Y157488D02*
X267207Y157488D01*
X268732Y155963D01*
X268732Y149861D01*
X267207Y148336D01*
X264156Y148336D01*
X262631Y149861D01*
X262631Y152912D01*
X265681Y152912D01*
X259377Y148336D02*
X259377Y157488D01*
X253276Y148336D01*
X253276Y157488D01*
X250022Y157488D02*
X250022Y148336D01*
X245446Y148336D01*
X243920Y149861D01*
X243920Y155963D01*
X245446Y157488D01*
X250022Y157488D01*
X48202Y478348D02*
X48202Y484449D01*
X45152Y487500D01*
X42101Y484449D01*
X42101Y478348D01*
X42101Y482924D02*
X48202Y482924D01*
X38847Y487500D02*
X32746Y487500D01*
X32746Y485975D01*
X38847Y479873D01*
X38847Y478348D01*
X48202Y459049D02*
X48202Y452948D01*
X48202Y459049D02*
X45152Y462100D01*
X42101Y459049D01*
X42101Y452948D01*
X42101Y457524D02*
X48202Y457524D01*
X35797Y460575D02*
X32746Y462100D01*
X35797Y460575D02*
X38847Y457524D01*
X38847Y454473D01*
X37322Y452948D01*
X34271Y452948D01*
X32746Y454473D01*
X32746Y455999D01*
X34271Y457524D01*
X38847Y457524D01*
X48202Y433649D02*
X48202Y427548D01*
X48202Y433649D02*
X45152Y436700D01*
X42101Y433649D01*
X42101Y427548D01*
X42101Y432124D02*
X48202Y432124D01*
X38847Y436700D02*
X32746Y436700D01*
X38847Y436700D02*
X38847Y432124D01*
X35797Y433649D01*
X34271Y433649D01*
X32746Y432124D01*
X32746Y429073D01*
X34271Y427548D01*
X37322Y427548D01*
X38847Y429073D01*
X48202Y408249D02*
X48202Y402148D01*
X48202Y408249D02*
X45152Y411300D01*
X42101Y408249D01*
X42101Y402148D01*
X42101Y406724D02*
X48202Y406724D01*
X34271Y402148D02*
X34271Y411300D01*
X38847Y406724D01*
X32746Y406724D01*
X48202Y382849D02*
X48202Y376748D01*
X48202Y382849D02*
X45152Y385900D01*
X42101Y382849D01*
X42101Y376748D01*
X42101Y381324D02*
X48202Y381324D01*
X38847Y384375D02*
X37322Y385900D01*
X34271Y385900D01*
X32746Y384375D01*
X32746Y382849D01*
X34271Y381324D01*
X35797Y381324D01*
X34271Y381324D02*
X32746Y379799D01*
X32746Y378273D01*
X34271Y376748D01*
X37322Y376748D01*
X38847Y378273D01*
X48202Y357449D02*
X48202Y351348D01*
X48202Y357449D02*
X45152Y360500D01*
X42101Y357449D01*
X42101Y351348D01*
X42101Y355924D02*
X48202Y355924D01*
X38847Y351348D02*
X32746Y351348D01*
X38847Y351348D02*
X32746Y357449D01*
X32746Y358975D01*
X34271Y360500D01*
X37322Y360500D01*
X38847Y358975D01*
X48202Y332049D02*
X48202Y325948D01*
X48202Y332049D02*
X45152Y335100D01*
X42101Y332049D01*
X42101Y325948D01*
X42101Y330524D02*
X48202Y330524D01*
X38847Y332049D02*
X35797Y335100D01*
X35797Y325948D01*
X38847Y325948D02*
X32746Y325948D01*
X48202Y306649D02*
X48202Y300548D01*
X48202Y306649D02*
X45152Y309700D01*
X42101Y306649D01*
X42101Y300548D01*
X42101Y305124D02*
X48202Y305124D01*
X38847Y302073D02*
X38847Y308175D01*
X37322Y309700D01*
X34271Y309700D01*
X32746Y308175D01*
X32746Y302073D01*
X34271Y300548D01*
X37322Y300548D01*
X38847Y302073D01*
X32746Y308175D01*
X67048Y282775D02*
X68574Y284300D01*
X71624Y284300D01*
X73150Y282775D01*
X73150Y281249D01*
X71624Y279724D01*
X68574Y279724D01*
X67048Y278199D01*
X67048Y276673D01*
X68574Y275148D01*
X71624Y275148D01*
X73150Y276673D01*
X63794Y275148D02*
X63794Y284300D01*
X60744Y278199D02*
X63794Y275148D01*
X60744Y278199D02*
X57693Y275148D01*
X57693Y284300D01*
X54439Y284300D02*
X54439Y275148D01*
X49863Y275148D01*
X48338Y276673D01*
X48338Y282775D01*
X49863Y284300D01*
X54439Y284300D01*
X45084Y275148D02*
X42033Y275148D01*
X43559Y275148D02*
X43559Y284300D01*
X45084Y284300D02*
X42033Y284300D01*
X37322Y284300D02*
X34271Y284300D01*
X37322Y284300D02*
X38847Y282775D01*
X38847Y276673D01*
X37322Y275148D01*
X34271Y275148D01*
X32746Y276673D01*
X32746Y282775D01*
X34271Y284300D01*
X79522Y257375D02*
X81047Y258900D01*
X84098Y258900D01*
X85623Y257375D01*
X85623Y255849D01*
X84098Y254324D01*
X81047Y254324D01*
X79522Y252799D01*
X79522Y251273D01*
X81047Y249748D01*
X84098Y249748D01*
X85623Y251273D01*
X76268Y249748D02*
X76268Y258900D01*
X73217Y252799D02*
X76268Y249748D01*
X73217Y252799D02*
X70167Y249748D01*
X70167Y258900D01*
X66913Y258900D02*
X66913Y249748D01*
X62337Y249748D01*
X60812Y251273D01*
X60812Y257375D01*
X62337Y258900D01*
X66913Y258900D01*
X52982Y258900D02*
X51456Y257375D01*
X52982Y258900D02*
X56032Y258900D01*
X57558Y257375D01*
X57558Y251273D01*
X56032Y249748D01*
X52982Y249748D01*
X51456Y251273D01*
X48202Y249748D02*
X48202Y258900D01*
X48202Y249748D02*
X42101Y249748D01*
X38847Y249748D02*
X38847Y258900D01*
X38847Y252799D02*
X32746Y258900D01*
X37322Y254324D02*
X32746Y249748D01*
X51456Y231975D02*
X52982Y233500D01*
X56032Y233500D01*
X57558Y231975D01*
X57558Y230449D01*
X56032Y228924D01*
X52982Y228924D01*
X51456Y227399D01*
X51456Y225873D01*
X52982Y224348D01*
X56032Y224348D01*
X57558Y225873D01*
X48202Y224348D02*
X48202Y233500D01*
X45152Y227399D02*
X48202Y224348D01*
X45152Y227399D02*
X42101Y224348D01*
X42101Y233500D01*
X37322Y233500D02*
X34271Y233500D01*
X37322Y233500D02*
X38847Y231975D01*
X38847Y225873D01*
X37322Y224348D01*
X34271Y224348D01*
X32746Y225873D01*
X32746Y231975D01*
X34271Y233500D01*
X52982Y208100D02*
X51456Y206575D01*
X52982Y208100D02*
X56032Y208100D01*
X57558Y206575D01*
X57558Y200473D01*
X56032Y198948D01*
X52982Y198948D01*
X51456Y200473D01*
X51456Y203524D01*
X54507Y203524D01*
X48202Y198948D02*
X48202Y208100D01*
X42101Y198948D01*
X42101Y208100D01*
X38847Y208100D02*
X38847Y198948D01*
X34271Y198948D01*
X32746Y200473D01*
X32746Y206575D01*
X34271Y208100D01*
X38847Y208100D01*
X56032Y182700D02*
X57558Y181175D01*
X56032Y182700D02*
X52982Y182700D01*
X51456Y181175D01*
X51456Y179649D01*
X52982Y178124D01*
X54507Y178124D01*
X52982Y178124D02*
X51456Y176599D01*
X51456Y175073D01*
X52982Y173548D01*
X56032Y173548D01*
X57558Y175073D01*
X48202Y176599D02*
X48202Y182700D01*
X48202Y176599D02*
X45152Y173548D01*
X42101Y176599D01*
X42101Y182700D01*
X38847Y181175D02*
X37322Y182700D01*
X34271Y182700D01*
X32746Y181175D01*
X32746Y179649D01*
X34271Y178124D01*
X35797Y178124D01*
X34271Y178124D02*
X32746Y176599D01*
X32746Y175073D01*
X34271Y173548D01*
X37322Y173548D01*
X38847Y175073D01*
X57558Y157300D02*
X57558Y148148D01*
X57558Y157300D02*
X52982Y157300D01*
X51456Y155775D01*
X51456Y152724D01*
X52982Y151199D01*
X57558Y151199D01*
X54507Y151199D02*
X51456Y148148D01*
X48202Y148148D02*
X48202Y154249D01*
X45152Y157300D01*
X42101Y154249D01*
X42101Y148148D01*
X42101Y152724D02*
X48202Y152724D01*
X38847Y157300D02*
X38847Y148148D01*
X35797Y151199D01*
X32746Y148148D01*
X32746Y157300D01*
X6096Y86490D02*
X7621Y84964D01*
X6096Y86490D02*
X6096Y88015D01*
X7621Y89540D01*
X15248Y89540D01*
X15248Y88015D02*
X15248Y91066D01*
X15248Y94320D02*
X6096Y94320D01*
X15248Y94320D02*
X15248Y98896D01*
X13723Y100421D01*
X10672Y100421D01*
X9147Y98896D01*
X9147Y94320D01*
X12197Y103675D02*
X15248Y106725D01*
X6096Y106725D01*
X6096Y103675D02*
X6096Y109776D01*
D11*
X38260Y110852D02*
X38260Y85452D01*
X20480Y82912D02*
X20380Y82914D01*
X20281Y82920D01*
X20181Y82930D01*
X20083Y82943D01*
X19984Y82961D01*
X19887Y82982D01*
X19791Y83007D01*
X19695Y83036D01*
X19601Y83069D01*
X19508Y83105D01*
X19417Y83145D01*
X19327Y83189D01*
X19239Y83236D01*
X19153Y83286D01*
X19069Y83340D01*
X18987Y83397D01*
X18908Y83457D01*
X18830Y83521D01*
X18756Y83587D01*
X18684Y83656D01*
X18615Y83728D01*
X18549Y83802D01*
X18485Y83880D01*
X18425Y83959D01*
X18368Y84041D01*
X18314Y84125D01*
X18264Y84211D01*
X18217Y84299D01*
X18173Y84389D01*
X18133Y84480D01*
X18097Y84573D01*
X18064Y84667D01*
X18035Y84763D01*
X18010Y84859D01*
X17989Y84956D01*
X17971Y85055D01*
X17958Y85153D01*
X17948Y85253D01*
X17942Y85352D01*
X17940Y85452D01*
X17940Y110852D02*
X17942Y110952D01*
X17948Y111051D01*
X17958Y111151D01*
X17971Y111249D01*
X17989Y111348D01*
X18010Y111445D01*
X18035Y111541D01*
X18064Y111637D01*
X18097Y111731D01*
X18133Y111824D01*
X18173Y111915D01*
X18217Y112005D01*
X18264Y112093D01*
X18314Y112179D01*
X18368Y112263D01*
X18425Y112345D01*
X18485Y112424D01*
X18549Y112502D01*
X18615Y112576D01*
X18684Y112648D01*
X18756Y112717D01*
X18830Y112783D01*
X18908Y112847D01*
X18987Y112907D01*
X19069Y112964D01*
X19153Y113018D01*
X19239Y113068D01*
X19327Y113115D01*
X19417Y113159D01*
X19508Y113199D01*
X19601Y113235D01*
X19695Y113268D01*
X19791Y113297D01*
X19887Y113322D01*
X19984Y113343D01*
X20083Y113361D01*
X20181Y113374D01*
X20281Y113384D01*
X20380Y113390D01*
X20480Y113392D01*
X35720Y113392D02*
X35820Y113390D01*
X35919Y113384D01*
X36019Y113374D01*
X36117Y113361D01*
X36216Y113343D01*
X36313Y113322D01*
X36409Y113297D01*
X36505Y113268D01*
X36599Y113235D01*
X36692Y113199D01*
X36783Y113159D01*
X36873Y113115D01*
X36961Y113068D01*
X37047Y113018D01*
X37131Y112964D01*
X37213Y112907D01*
X37292Y112847D01*
X37370Y112783D01*
X37444Y112717D01*
X37516Y112648D01*
X37585Y112576D01*
X37651Y112502D01*
X37715Y112424D01*
X37775Y112345D01*
X37832Y112263D01*
X37886Y112179D01*
X37936Y112093D01*
X37983Y112005D01*
X38027Y111915D01*
X38067Y111824D01*
X38103Y111731D01*
X38136Y111637D01*
X38165Y111541D01*
X38190Y111445D01*
X38211Y111348D01*
X38229Y111249D01*
X38242Y111151D01*
X38252Y111051D01*
X38258Y110952D01*
X38260Y110852D01*
X38260Y85452D02*
X38258Y85352D01*
X38252Y85253D01*
X38242Y85153D01*
X38229Y85055D01*
X38211Y84956D01*
X38190Y84859D01*
X38165Y84763D01*
X38136Y84667D01*
X38103Y84573D01*
X38067Y84480D01*
X38027Y84389D01*
X37983Y84299D01*
X37936Y84211D01*
X37886Y84125D01*
X37832Y84041D01*
X37775Y83959D01*
X37715Y83880D01*
X37651Y83802D01*
X37585Y83728D01*
X37516Y83656D01*
X37444Y83587D01*
X37370Y83521D01*
X37292Y83457D01*
X37213Y83397D01*
X37131Y83340D01*
X37047Y83286D01*
X36961Y83236D01*
X36873Y83189D01*
X36783Y83145D01*
X36692Y83105D01*
X36599Y83069D01*
X36505Y83036D01*
X36409Y83007D01*
X36313Y82982D01*
X36216Y82961D01*
X36117Y82943D01*
X36019Y82930D01*
X35919Y82920D01*
X35820Y82914D01*
X35720Y82912D01*
X20480Y82912D01*
X20480Y113392D02*
X35720Y113392D01*
X17940Y110852D02*
X17940Y85452D01*
D12*
X27000Y139900D02*
X1600Y139900D01*
X27000Y139900D02*
X27000Y495500D01*
X1600Y495500D01*
X1600Y139900D01*
X272900Y139900D02*
X298300Y139900D01*
X298300Y495500D01*
X272900Y495500D01*
X272900Y139900D01*
D13*
X251386Y75618D03*
D14*
X246086Y75618D03*
X241886Y75618D03*
D15*
X233986Y75618D03*
X226386Y75618D03*
D14*
X222286Y75618D03*
X218086Y75618D03*
D16*
X210286Y75618D03*
D17*
X251386Y75418D03*
D18*
X245986Y75418D03*
X241786Y75418D03*
X233986Y75418D03*
D14*
X226286Y75418D03*
D18*
X222386Y75418D03*
X217986Y75418D03*
D15*
X210186Y75418D03*
D19*
X251486Y75218D03*
D18*
X245986Y75218D03*
X241786Y75218D03*
D20*
X234086Y75218D03*
D18*
X226386Y75218D03*
X222386Y75218D03*
X217986Y75218D03*
D21*
X210186Y75218D03*
X251386Y75018D03*
D18*
X245986Y75018D03*
X241786Y75018D03*
D20*
X234086Y75018D03*
D14*
X226486Y75018D03*
D18*
X222386Y75018D03*
X217986Y75018D03*
D22*
X210286Y75018D03*
D23*
X251386Y74818D03*
D18*
X245986Y74818D03*
X241586Y74818D03*
D24*
X233986Y74818D03*
D14*
X226486Y74818D03*
D18*
X222386Y74818D03*
X217986Y74818D03*
D25*
X210186Y74818D03*
D26*
X251486Y74618D03*
D18*
X245986Y74618D03*
X241586Y74618D03*
D24*
X233986Y74618D03*
D18*
X226586Y74618D03*
X222386Y74618D03*
X217986Y74618D03*
D27*
X210286Y74618D03*
D28*
X251486Y74418D03*
D20*
X246086Y74418D03*
D14*
X241486Y74418D03*
D19*
X234086Y74418D03*
D14*
X226686Y74418D03*
D18*
X222386Y74418D03*
X217986Y74418D03*
D29*
X210286Y74418D03*
D30*
X249586Y74218D03*
D18*
X241386Y74218D03*
D19*
X234086Y74218D03*
D14*
X226686Y74218D03*
D18*
X222386Y74218D03*
X217986Y74218D03*
D31*
X210186Y74218D03*
D32*
X249686Y74018D03*
D18*
X241386Y74018D03*
D33*
X233986Y74018D03*
D14*
X226686Y74018D03*
D18*
X222386Y74018D03*
X217986Y74018D03*
D34*
X210186Y74018D03*
D35*
X249786Y73818D03*
D14*
X241286Y73818D03*
D36*
X234086Y73818D03*
D14*
X226886Y73818D03*
D18*
X222386Y73818D03*
X217986Y73818D03*
D37*
X210286Y73818D03*
D35*
X249786Y73618D03*
D14*
X241286Y73618D03*
D36*
X234086Y73618D03*
D14*
X226886Y73618D03*
D18*
X222386Y73618D03*
X217986Y73618D03*
D38*
X210286Y73618D03*
D39*
X249886Y73418D03*
D18*
X241186Y73418D03*
D21*
X233986Y73418D03*
D15*
X226986Y73418D03*
D18*
X222386Y73418D03*
X217986Y73418D03*
D40*
X210186Y73418D03*
D41*
X249986Y73218D03*
D14*
X241086Y73218D03*
D21*
X233986Y73218D03*
D14*
X227086Y73218D03*
D18*
X222386Y73218D03*
X217986Y73218D03*
D42*
X210186Y73218D03*
D41*
X249986Y73018D03*
D14*
X241086Y73018D03*
D43*
X234086Y73018D03*
D14*
X227086Y73018D03*
D18*
X222386Y73018D03*
X217986Y73018D03*
D42*
X210386Y73018D03*
D41*
X249986Y72818D03*
D18*
X240986Y72818D03*
D44*
X233986Y72818D03*
D14*
X227086Y72818D03*
D18*
X222386Y72818D03*
X217986Y72818D03*
D45*
X210486Y72818D03*
D21*
X253586Y72618D03*
D22*
X246886Y72618D03*
D14*
X240886Y72618D03*
D44*
X233986Y72618D03*
D15*
X227186Y72618D03*
D18*
X222386Y72618D03*
X217986Y72618D03*
D21*
X212986Y72618D03*
D15*
X207786Y72618D03*
D36*
X253886Y72418D03*
D43*
X246686Y72418D03*
D14*
X240886Y72418D03*
D44*
X233986Y72418D03*
D14*
X227286Y72418D03*
D18*
X222386Y72418D03*
X217986Y72418D03*
D33*
X213186Y72418D03*
D46*
X207686Y72418D03*
D19*
X254086Y72218D03*
D36*
X246486Y72218D03*
D18*
X240786Y72218D03*
D22*
X234086Y72218D03*
D15*
X227386Y72218D03*
D18*
X222386Y72218D03*
X217986Y72218D03*
D19*
X213486Y72218D03*
D47*
X207686Y72218D03*
D24*
X254186Y72018D03*
D33*
X246386Y72018D03*
D14*
X240686Y72018D03*
D22*
X234086Y72018D03*
D15*
X227386Y72018D03*
D18*
X222386Y72018D03*
X217986Y72018D03*
D24*
X213586Y72018D03*
D13*
X207786Y72018D03*
D24*
X254186Y71818D03*
D19*
X246286Y71818D03*
D14*
X240686Y71818D03*
D48*
X234086Y71818D03*
D14*
X227486Y71818D03*
D18*
X222386Y71818D03*
X217986Y71818D03*
D20*
X213686Y71818D03*
D49*
X207886Y71818D03*
D20*
X254286Y71618D03*
D24*
X246186Y71618D03*
D15*
X240586Y71618D03*
D48*
X234086Y71618D03*
D15*
X227586Y71618D03*
D18*
X222386Y71618D03*
X217986Y71618D03*
X213786Y71618D03*
D20*
X254486Y71418D03*
D24*
X246186Y71418D03*
D14*
X240486Y71418D03*
D50*
X233986Y71418D03*
D15*
X227586Y71418D03*
D18*
X222386Y71418D03*
X217986Y71418D03*
D20*
X213886Y71418D03*
X254486Y71218D03*
D24*
X246186Y71218D03*
D14*
X240486Y71218D03*
D50*
X233986Y71218D03*
D15*
X227786Y71218D03*
D18*
X222386Y71218D03*
X217986Y71218D03*
D20*
X213886Y71218D03*
X254486Y71018D03*
X246086Y71018D03*
D15*
X240386Y71018D03*
D17*
X235586Y71018D03*
D51*
X232486Y71018D03*
D15*
X227786Y71018D03*
D18*
X222386Y71018D03*
X217986Y71018D03*
X213986Y71018D03*
X254586Y70818D03*
D20*
X246086Y70818D03*
D14*
X240286Y70818D03*
D17*
X235786Y70818D03*
D51*
X232486Y70818D03*
D15*
X227786Y70818D03*
D18*
X222386Y70818D03*
X217986Y70818D03*
X213986Y70818D03*
X254586Y70618D03*
D20*
X246086Y70618D03*
D14*
X240286Y70618D03*
D17*
X235786Y70618D03*
D51*
X232286Y70618D03*
X227886Y70618D03*
D18*
X222386Y70618D03*
X217986Y70618D03*
X213986Y70618D03*
X254586Y70418D03*
X245986Y70418D03*
D15*
X240186Y70418D03*
D51*
X235886Y70418D03*
X232286Y70418D03*
D15*
X227986Y70418D03*
D18*
X222386Y70418D03*
X217986Y70418D03*
X213986Y70418D03*
X254586Y70218D03*
X245986Y70218D03*
D14*
X240086Y70218D03*
D51*
X235886Y70218D03*
X232286Y70218D03*
D15*
X227986Y70218D03*
D18*
X222386Y70218D03*
X217986Y70218D03*
X213986Y70218D03*
X254586Y70018D03*
X245986Y70018D03*
D15*
X239986Y70018D03*
D17*
X235986Y70018D03*
X232186Y70018D03*
D51*
X228086Y70018D03*
D18*
X222386Y70018D03*
X217986Y70018D03*
X213986Y70018D03*
X254586Y69818D03*
X245986Y69818D03*
D15*
X239986Y69818D03*
D17*
X235986Y69818D03*
D51*
X232086Y69818D03*
D15*
X228186Y69818D03*
D18*
X222386Y69818D03*
X217986Y69818D03*
X213986Y69818D03*
X254586Y69618D03*
X245986Y69618D03*
D15*
X239986Y69618D03*
D17*
X236186Y69618D03*
D51*
X232086Y69618D03*
X228286Y69618D03*
D18*
X222386Y69618D03*
X217986Y69618D03*
X213986Y69618D03*
X254586Y69418D03*
D20*
X246086Y69418D03*
D14*
X239886Y69418D03*
D17*
X236186Y69418D03*
D51*
X231886Y69418D03*
X228286Y69418D03*
D18*
X222386Y69418D03*
X217986Y69418D03*
X213986Y69418D03*
X254586Y69218D03*
D20*
X246086Y69218D03*
D15*
X239786Y69218D03*
D17*
X236186Y69218D03*
D51*
X231886Y69218D03*
X228286Y69218D03*
D18*
X222386Y69218D03*
X217986Y69218D03*
X213986Y69218D03*
D20*
X254486Y69018D03*
X246086Y69018D03*
D15*
X239786Y69018D03*
D17*
X236186Y69018D03*
D51*
X231886Y69018D03*
D15*
X228386Y69018D03*
D18*
X222386Y69018D03*
X217986Y69018D03*
D20*
X213886Y69018D03*
X254486Y68818D03*
D24*
X246186Y68818D03*
D15*
X239586Y68818D03*
D17*
X236386Y68818D03*
D51*
X231886Y68818D03*
X228486Y68818D03*
D18*
X222386Y68818D03*
X217986Y68818D03*
D20*
X213886Y68818D03*
X254486Y68618D03*
D24*
X246186Y68618D03*
D26*
X238086Y68618D03*
X230086Y68618D03*
D18*
X222386Y68618D03*
X217986Y68618D03*
D20*
X213686Y68618D03*
D52*
X207786Y68618D03*
D20*
X254286Y68418D03*
D24*
X246186Y68418D03*
D26*
X238086Y68418D03*
D50*
X230186Y68418D03*
D18*
X222386Y68418D03*
X217986Y68418D03*
D20*
X213686Y68418D03*
D53*
X207686Y68418D03*
D24*
X254186Y68218D03*
D19*
X246286Y68218D03*
D48*
X238086Y68218D03*
X230086Y68218D03*
D18*
X222386Y68218D03*
X217986Y68218D03*
D24*
X213586Y68218D03*
D54*
X207586Y68218D03*
D24*
X254186Y68018D03*
D33*
X246386Y68018D03*
D48*
X238086Y68018D03*
X230086Y68018D03*
D18*
X222386Y68018D03*
X217986Y68018D03*
D19*
X213486Y68018D03*
D55*
X207486Y68018D03*
D19*
X254086Y67818D03*
D36*
X246486Y67818D03*
D48*
X238086Y67818D03*
D23*
X230186Y67818D03*
D18*
X222386Y67818D03*
X217986Y67818D03*
D33*
X213186Y67818D03*
D17*
X207586Y67818D03*
D33*
X253786Y67618D03*
D21*
X246586Y67618D03*
D22*
X238086Y67618D03*
D23*
X230186Y67618D03*
D18*
X222386Y67618D03*
X217986Y67618D03*
D42*
X210586Y67618D03*
D36*
X253686Y67418D03*
D44*
X246786Y67418D03*
D22*
X238086Y67418D03*
X230086Y67418D03*
D18*
X222386Y67418D03*
X217986Y67418D03*
D42*
X210386Y67418D03*
D44*
X253186Y67218D03*
D50*
X247186Y67218D03*
D44*
X237986Y67218D03*
X230186Y67218D03*
D18*
X222386Y67218D03*
X217986Y67218D03*
D56*
X210286Y67218D03*
D41*
X249986Y67018D03*
D43*
X238086Y67018D03*
D44*
X230186Y67018D03*
D18*
X222386Y67018D03*
X217986Y67018D03*
D45*
X210286Y67018D03*
D41*
X249986Y66818D03*
D43*
X238086Y66818D03*
D21*
X230186Y66818D03*
D18*
X222386Y66818D03*
X217986Y66818D03*
D40*
X210186Y66818D03*
D39*
X249886Y66618D03*
D21*
X237986Y66618D03*
X230186Y66618D03*
D18*
X222386Y66618D03*
X217986Y66618D03*
D57*
X210186Y66618D03*
D35*
X249786Y66418D03*
D21*
X237986Y66418D03*
X230186Y66418D03*
D18*
X222386Y66418D03*
X217986Y66418D03*
D34*
X210186Y66418D03*
D32*
X249686Y66218D03*
D36*
X238086Y66218D03*
D33*
X230186Y66218D03*
D18*
X222386Y66218D03*
X217986Y66218D03*
D31*
X210186Y66218D03*
D30*
X249586Y66018D03*
D33*
X237986Y66018D03*
X230186Y66018D03*
D18*
X222386Y66018D03*
X217986Y66018D03*
D58*
X210186Y66018D03*
D59*
X249486Y65818D03*
D19*
X238086Y65818D03*
D33*
X230186Y65818D03*
D18*
X222386Y65818D03*
X217986Y65818D03*
D60*
X210186Y65818D03*
D25*
X251386Y65618D03*
D20*
X246086Y65618D03*
D24*
X237986Y65618D03*
D19*
X230286Y65618D03*
D18*
X222386Y65618D03*
X217986Y65618D03*
D25*
X210186Y65618D03*
D50*
X251386Y65418D03*
D18*
X245986Y65418D03*
D24*
X237986Y65418D03*
X230186Y65418D03*
D18*
X222386Y65418D03*
X217986Y65418D03*
D50*
X210186Y65418D03*
D23*
X251386Y65218D03*
D18*
X245986Y65218D03*
D24*
X237986Y65218D03*
D20*
X230286Y65218D03*
D18*
X222386Y65218D03*
X217986Y65218D03*
D43*
X210286Y65218D03*
D21*
X251386Y65018D03*
D18*
X245986Y65018D03*
X237986Y65018D03*
D20*
X230286Y65018D03*
D18*
X222386Y65018D03*
X217986Y65018D03*
X210186Y65018D03*
D24*
X251386Y64818D03*
D18*
X245986Y64818D03*
X237986Y64818D03*
X230186Y64818D03*
D14*
X222286Y64818D03*
D18*
X217986Y64818D03*
D55*
X210286Y64818D03*
D17*
X251386Y64618D03*
D18*
X245986Y64618D03*
D53*
X251286Y64418D03*
D18*
X245986Y64418D03*
X245986Y64218D03*
X245986Y64018D03*
X245986Y63818D03*
X245986Y63618D03*
X245986Y63418D03*
X245986Y63218D03*
X245986Y63018D03*
X245986Y62818D03*
X245986Y62618D03*
X245986Y62418D03*
X245986Y62218D03*
D19*
X230286Y62218D03*
D18*
X245986Y62018D03*
D61*
X230286Y62018D03*
D18*
X245986Y61818D03*
D56*
X230286Y61818D03*
D18*
X245986Y61618D03*
D62*
X230286Y61618D03*
D18*
X245986Y61418D03*
D63*
X230286Y61418D03*
D18*
X245986Y61218D03*
D64*
X230286Y61218D03*
D18*
X245986Y61018D03*
D65*
X230186Y61018D03*
D14*
X246086Y60818D03*
D66*
X230286Y60818D03*
D67*
X230286Y60618D03*
D68*
X230286Y60418D03*
D69*
X230286Y60218D03*
D70*
X230286Y60018D03*
D71*
X230186Y59818D03*
D72*
X230286Y59618D03*
D73*
X230286Y59418D03*
D74*
X230186Y59218D03*
D75*
X230186Y59018D03*
D76*
X230286Y58818D03*
D77*
X230186Y58618D03*
D78*
X230186Y58418D03*
D79*
X230186Y58218D03*
D80*
X230186Y58018D03*
D81*
X230186Y57818D03*
D82*
X230286Y57618D03*
D83*
X230186Y57418D03*
D84*
X230186Y57218D03*
D85*
X230286Y57018D03*
D86*
X230186Y56818D03*
D87*
X230186Y56618D03*
D88*
X230186Y56418D03*
D89*
X230286Y56218D03*
D90*
X230286Y56018D03*
D91*
X230286Y55818D03*
D92*
X230286Y55618D03*
D93*
X230286Y55418D03*
D94*
X230286Y55218D03*
D95*
X230186Y55018D03*
D96*
X230286Y54818D03*
D97*
X230286Y54618D03*
D98*
X230286Y54418D03*
D99*
X230286Y54218D03*
D100*
X230286Y54018D03*
D101*
X230286Y53818D03*
D102*
X230286Y53618D03*
D103*
X230186Y53418D03*
D104*
X230186Y53218D03*
D105*
X230286Y53018D03*
D106*
X230286Y52818D03*
D107*
X230286Y52618D03*
D108*
X230186Y52418D03*
D109*
X230286Y52218D03*
D110*
X230286Y52018D03*
D111*
X230286Y51818D03*
D112*
X230186Y51618D03*
D113*
X230286Y51418D03*
D114*
X230186Y51218D03*
D115*
X230186Y51018D03*
D116*
X230286Y50818D03*
D117*
X230186Y50618D03*
D118*
X230186Y50418D03*
D119*
X230286Y50218D03*
D120*
X230186Y50018D03*
D121*
X230286Y49818D03*
D122*
X230186Y49618D03*
D123*
X230286Y49418D03*
D124*
X230286Y49218D03*
X230286Y49018D03*
D125*
X230186Y48818D03*
D126*
X230186Y48618D03*
D127*
X230286Y48418D03*
X230286Y48218D03*
D128*
X230286Y48018D03*
D129*
X230186Y47818D03*
X230186Y47618D03*
D130*
X230286Y47418D03*
D131*
X230186Y47218D03*
D132*
X230286Y47018D03*
D133*
X230186Y46818D03*
X230186Y46618D03*
D134*
X230286Y46418D03*
D135*
X230186Y46218D03*
D136*
X230286Y46018D03*
X230286Y45818D03*
D137*
X230186Y45618D03*
D138*
X230286Y45418D03*
D139*
X230186Y45218D03*
X230186Y45018D03*
D140*
X230286Y44818D03*
X230286Y44618D03*
D50*
X250986Y44418D03*
D25*
X209586Y44418D03*
D50*
X251186Y44218D03*
D26*
X209486Y44218D03*
D48*
X251286Y44018D03*
D26*
X209486Y44018D03*
D48*
X251286Y43818D03*
D26*
X209486Y43818D03*
D48*
X251286Y43618D03*
D25*
X209386Y43618D03*
D50*
X251386Y43418D03*
D25*
X209386Y43418D03*
D50*
X251386Y43218D03*
D25*
X209386Y43218D03*
D50*
X251386Y43018D03*
D28*
X209286Y43018D03*
D50*
X251386Y42818D03*
D28*
X209286Y42818D03*
D26*
X251486Y42618D03*
D28*
X209286Y42618D03*
D26*
X251486Y42418D03*
D28*
X209286Y42418D03*
D26*
X251486Y42218D03*
D28*
X209286Y42218D03*
D26*
X251486Y42018D03*
D28*
X209286Y42018D03*
D26*
X251486Y41818D03*
D141*
X209186Y41818D03*
D25*
X251586Y41618D03*
D141*
X209186Y41618D03*
D25*
X251586Y41418D03*
D141*
X209186Y41418D03*
D25*
X251586Y41218D03*
D141*
X209186Y41218D03*
D25*
X251586Y41018D03*
D141*
X209186Y41018D03*
D25*
X251586Y40818D03*
D27*
X209086Y40818D03*
D25*
X251586Y40618D03*
D27*
X209086Y40618D03*
D25*
X251586Y40418D03*
D27*
X209086Y40418D03*
D25*
X251586Y40218D03*
D27*
X209086Y40218D03*
D25*
X251586Y40018D03*
D27*
X209086Y40018D03*
D25*
X251586Y39818D03*
D27*
X209086Y39818D03*
D28*
X251686Y39618D03*
D36*
X241286Y39618D03*
D21*
X234186Y39618D03*
X226986Y39618D03*
D36*
X219886Y39618D03*
D27*
X209086Y39618D03*
D28*
X251686Y39418D03*
D21*
X241386Y39418D03*
X234186Y39418D03*
D43*
X226886Y39418D03*
D21*
X219786Y39418D03*
D27*
X209086Y39418D03*
D28*
X251686Y39218D03*
D21*
X241386Y39218D03*
X234186Y39218D03*
D43*
X226886Y39218D03*
D21*
X219786Y39218D03*
D27*
X209086Y39218D03*
D28*
X251686Y39018D03*
D21*
X241386Y39018D03*
X234186Y39018D03*
D43*
X226886Y39018D03*
D21*
X219786Y39018D03*
D27*
X209086Y39018D03*
D28*
X251686Y38818D03*
D21*
X241386Y38818D03*
X234186Y38818D03*
D43*
X226886Y38818D03*
D21*
X219786Y38818D03*
D27*
X209086Y38818D03*
D28*
X251686Y38618D03*
D21*
X241386Y38618D03*
X234186Y38618D03*
D43*
X226886Y38618D03*
D21*
X219786Y38618D03*
D27*
X209086Y38618D03*
D28*
X251686Y38418D03*
D21*
X241386Y38418D03*
X234186Y38418D03*
D43*
X226886Y38418D03*
D21*
X219786Y38418D03*
D27*
X209086Y38418D03*
D28*
X251686Y38218D03*
D21*
X241386Y38218D03*
X234186Y38218D03*
D43*
X226886Y38218D03*
D21*
X219786Y38218D03*
D60*
X208986Y38218D03*
D28*
X251686Y38018D03*
D21*
X241386Y38018D03*
X234186Y38018D03*
D43*
X226886Y38018D03*
D21*
X219786Y38018D03*
D60*
X208986Y38018D03*
D28*
X251686Y37818D03*
D21*
X241386Y37818D03*
X234186Y37818D03*
D43*
X226886Y37818D03*
D21*
X219786Y37818D03*
D60*
X208986Y37818D03*
D28*
X251686Y37618D03*
D21*
X241386Y37618D03*
X234186Y37618D03*
D43*
X226886Y37618D03*
D21*
X219786Y37618D03*
D60*
X208986Y37618D03*
D28*
X251686Y37418D03*
D21*
X241386Y37418D03*
X234186Y37418D03*
D43*
X226886Y37418D03*
D21*
X219786Y37418D03*
D60*
X208986Y37418D03*
D28*
X251686Y37218D03*
D21*
X241386Y37218D03*
X234186Y37218D03*
D43*
X226886Y37218D03*
D21*
X219786Y37218D03*
D60*
X208986Y37218D03*
D28*
X251686Y37018D03*
D21*
X241386Y37018D03*
X234186Y37018D03*
D43*
X226886Y37018D03*
D21*
X219786Y37018D03*
D60*
X208986Y37018D03*
D28*
X251686Y36818D03*
D21*
X241386Y36818D03*
X234186Y36818D03*
D43*
X226886Y36818D03*
D21*
X219786Y36818D03*
D60*
X208986Y36818D03*
D28*
X251686Y36618D03*
D21*
X241386Y36618D03*
X234186Y36618D03*
D43*
X226886Y36618D03*
D21*
X219786Y36618D03*
D27*
X209086Y36618D03*
D28*
X251686Y36418D03*
D21*
X241386Y36418D03*
X234186Y36418D03*
D43*
X226886Y36418D03*
D21*
X219786Y36418D03*
D27*
X209086Y36418D03*
D28*
X251686Y36218D03*
D21*
X241386Y36218D03*
X234186Y36218D03*
D43*
X226886Y36218D03*
D21*
X219786Y36218D03*
D27*
X209086Y36218D03*
D28*
X251686Y36018D03*
D21*
X241386Y36018D03*
X234186Y36018D03*
D43*
X226886Y36018D03*
D21*
X219786Y36018D03*
D27*
X209086Y36018D03*
D28*
X251686Y35818D03*
D21*
X241386Y35818D03*
X234186Y35818D03*
D43*
X226886Y35818D03*
D21*
X219786Y35818D03*
D27*
X209086Y35818D03*
D28*
X251686Y35618D03*
D21*
X241386Y35618D03*
X234186Y35618D03*
D43*
X226886Y35618D03*
D21*
X219786Y35618D03*
D27*
X209086Y35618D03*
D28*
X251686Y35418D03*
D21*
X241386Y35418D03*
X234186Y35418D03*
D43*
X226886Y35418D03*
D21*
X219786Y35418D03*
D27*
X209086Y35418D03*
D25*
X251586Y35218D03*
D21*
X241386Y35218D03*
X234186Y35218D03*
D43*
X226886Y35218D03*
D21*
X219786Y35218D03*
D27*
X209086Y35218D03*
D25*
X251586Y35018D03*
D36*
X241286Y35018D03*
D21*
X234186Y35018D03*
X226986Y35018D03*
D36*
X219886Y35018D03*
D27*
X209086Y35018D03*
D25*
X251586Y34818D03*
D27*
X209086Y34818D03*
D25*
X251586Y34618D03*
D27*
X209086Y34618D03*
D25*
X251586Y34418D03*
D27*
X209086Y34418D03*
D25*
X251586Y34218D03*
D27*
X209086Y34218D03*
D25*
X251586Y34018D03*
D27*
X209086Y34018D03*
D25*
X251586Y33818D03*
D141*
X209186Y33818D03*
D25*
X251586Y33618D03*
D141*
X209186Y33618D03*
D25*
X251586Y33418D03*
D141*
X209186Y33418D03*
D26*
X251486Y33218D03*
D141*
X209186Y33218D03*
D26*
X251486Y33018D03*
D28*
X209286Y33018D03*
D26*
X251486Y32818D03*
D28*
X209286Y32818D03*
D26*
X251486Y32618D03*
D28*
X209286Y32618D03*
D26*
X251486Y32418D03*
D28*
X209286Y32418D03*
D50*
X251386Y32218D03*
D28*
X209286Y32218D03*
D50*
X251386Y32018D03*
D28*
X209286Y32018D03*
D50*
X251386Y31818D03*
D25*
X209386Y31818D03*
D50*
X251386Y31618D03*
D25*
X209386Y31618D03*
D48*
X251286Y31418D03*
D25*
X209386Y31418D03*
D48*
X251286Y31218D03*
D25*
X209386Y31218D03*
D48*
X251286Y31018D03*
D26*
X209486Y31018D03*
D48*
X251286Y30818D03*
D26*
X209486Y30818D03*
D23*
X251186Y30618D03*
D26*
X209486Y30618D03*
D23*
X251186Y30418D03*
D50*
X209586Y30418D03*
D48*
X251086Y30218D03*
D26*
X209686Y30218D03*
D142*
X246386Y30018D03*
D28*
X230686Y30018D03*
D143*
X214486Y30018D03*
D142*
X246386Y29818D03*
D28*
X230686Y29818D03*
D143*
X214486Y29818D03*
D142*
X246386Y29618D03*
D28*
X230686Y29618D03*
D144*
X214586Y29618D03*
D142*
X246386Y29418D03*
D141*
X230586Y29418D03*
D145*
X214486Y29418D03*
D64*
X246286Y29218D03*
D141*
X230586Y29218D03*
D146*
X214586Y29218D03*
D142*
X246186Y29018D03*
D141*
X230586Y29018D03*
D146*
X214586Y29018D03*
D64*
X246086Y28818D03*
D141*
X230586Y28818D03*
D146*
X214586Y28818D03*
D64*
X246086Y28618D03*
D27*
X230486Y28618D03*
D147*
X214486Y28618D03*
D64*
X246086Y28418D03*
D141*
X230386Y28418D03*
D142*
X214586Y28418D03*
D148*
X245986Y28218D03*
D141*
X230386Y28218D03*
D64*
X214486Y28218D03*
D148*
X245986Y28018D03*
D141*
X230386Y28018D03*
D148*
X214586Y28018D03*
X245786Y27818D03*
D27*
X230286Y27818D03*
D148*
X214586Y27818D03*
X245786Y27618D03*
D27*
X230286Y27618D03*
D149*
X214586Y27618D03*
D150*
X245686Y27418D03*
D141*
X230186Y27418D03*
D149*
X214586Y27418D03*
D150*
X245686Y27218D03*
D27*
X230086Y27218D03*
D151*
X214486Y27218D03*
D150*
X245686Y27018D03*
D27*
X230086Y27018D03*
D152*
X214586Y27018D03*
D149*
X245586Y26818D03*
D27*
X230086Y26818D03*
D153*
X214586Y26818D03*
D150*
X245486Y26618D03*
D27*
X229886Y26618D03*
D153*
X214586Y26618D03*
D149*
X245386Y26418D03*
D27*
X229886Y26418D03*
D154*
X214486Y26418D03*
D149*
X245386Y26218D03*
D27*
X229886Y26218D03*
D155*
X214486Y26218D03*
D151*
X245286Y26018D03*
D60*
X229786Y26018D03*
D155*
X214486Y26018D03*
D149*
X245186Y25818D03*
D27*
X229686Y25818D03*
D156*
X214486Y25818D03*
D151*
X245086Y25618D03*
D60*
X229586Y25618D03*
D157*
X214586Y25618D03*
D152*
X244986Y25418D03*
D60*
X229586Y25418D03*
D62*
X214486Y25418D03*
D152*
X244986Y25218D03*
D60*
X229386Y25218D03*
D39*
X214486Y25218D03*
D152*
X244786Y25018D03*
D60*
X229386Y25018D03*
D39*
X214486Y25018D03*
D152*
X244786Y24818D03*
D29*
X229286Y24818D03*
D32*
X214486Y24818D03*
D63*
X244686Y24618D03*
D60*
X229186Y24618D03*
D30*
X214386Y24618D03*
D153*
X244586Y24418D03*
D29*
X229086Y24418D03*
D158*
X214386Y24418D03*
D63*
X244486Y24218D03*
D29*
X229086Y24218D03*
D159*
X214486Y24218D03*
D153*
X244386Y24018D03*
D29*
X228886Y24018D03*
D160*
X214386Y24018D03*
D63*
X244286Y23818D03*
D29*
X228886Y23818D03*
D42*
X214386Y23818D03*
D153*
X244186Y23618D03*
D29*
X228686Y23618D03*
D40*
X214386Y23618D03*
D154*
X244086Y23418D03*
D58*
X228586Y23418D03*
D38*
X214286Y23418D03*
D154*
X244086Y23218D03*
D58*
X228586Y23218D03*
D37*
X214286Y23218D03*
D154*
X243886Y23018D03*
D58*
X228386Y23018D03*
D61*
X214286Y23018D03*
D161*
X243786Y22818D03*
D58*
X228386Y22818D03*
D31*
X214186Y22818D03*
D161*
X243586Y22618D03*
D58*
X228186Y22618D03*
X214186Y22618D03*
D161*
X243586Y22418D03*
D162*
X228086Y22418D03*
D27*
X214086Y22418D03*
D155*
X243486Y22218D03*
D162*
X227886Y22218D03*
D28*
X214086Y22218D03*
D155*
X243286Y22018D03*
D162*
X227886Y22018D03*
D25*
X213986Y22018D03*
D155*
X243286Y21818D03*
D162*
X227686Y21818D03*
D50*
X213986Y21818D03*
D156*
X243086Y21618D03*
D31*
X227586Y21618D03*
D22*
X213886Y21618D03*
D163*
X242986Y21418D03*
D31*
X227386Y21418D03*
D21*
X213786Y21418D03*
D156*
X242886Y21218D03*
D31*
X227386Y21218D03*
D33*
X213786Y21218D03*
D156*
X242686Y21018D03*
D31*
X227186Y21018D03*
D20*
X213686Y21018D03*
D157*
X242586Y20818D03*
D61*
X227086Y20818D03*
D15*
X213586Y20818D03*
D157*
X242386Y20618D03*
D61*
X226886Y20618D03*
D17*
X213386Y20618D03*
D62*
X242286Y20418D03*
D34*
X226786Y20418D03*
D55*
X213286Y20418D03*
D62*
X242086Y20218D03*
D34*
X226586Y20218D03*
D16*
X213086Y20218D03*
D41*
X241986Y20018D03*
D34*
X226386Y20018D03*
D164*
X213086Y20018D03*
D41*
X241786Y19818D03*
D37*
X226286Y19818D03*
D39*
X241686Y19618D03*
D37*
X226086Y19618D03*
D39*
X241486Y19418D03*
D57*
X225986Y19418D03*
D35*
X241386Y19218D03*
D57*
X225786Y19218D03*
D35*
X241186Y19018D03*
D57*
X225586Y19018D03*
D32*
X241086Y18818D03*
D57*
X225386Y18818D03*
D32*
X240886Y18618D03*
D40*
X225186Y18618D03*
D30*
X240786Y18418D03*
D40*
X224986Y18418D03*
D30*
X240586Y18218D03*
D40*
X224786Y18218D03*
D158*
X240386Y18018D03*
D42*
X224586Y18018D03*
D158*
X240186Y17818D03*
D42*
X224386Y17818D03*
D158*
X239986Y17618D03*
D42*
X224186Y17618D03*
D160*
X239786Y17418D03*
D56*
X223886Y17418D03*
D160*
X239586Y17218D03*
D159*
X223686Y17218D03*
D42*
X239386Y17018D03*
D159*
X223486Y17018D03*
D42*
X239186Y16818D03*
D158*
X223186Y16818D03*
D45*
X238886Y16618D03*
D59*
X222886Y16618D03*
D45*
X238686Y16418D03*
D30*
X222586Y16418D03*
D38*
X238486Y16218D03*
D32*
X222286Y16218D03*
D57*
X238186Y16018D03*
D35*
X221986Y16018D03*
D37*
X238086Y15818D03*
D41*
X221586Y15818D03*
D34*
X237786Y15618D03*
D62*
X221286Y15618D03*
D61*
X237486Y15418D03*
D163*
X220786Y15418D03*
D31*
X237186Y15218D03*
D161*
X220386Y15218D03*
D58*
X236986Y15018D03*
D63*
X219886Y15018D03*
D29*
X236686Y14818D03*
D150*
X219286Y14818D03*
D60*
X236386Y14618D03*
D145*
X218486Y14618D03*
D49*
X209486Y14618D03*
D141*
X235986Y14418D03*
D165*
X216786Y14418D03*
D28*
X235686Y14218D03*
D67*
X216686Y14218D03*
D48*
X235286Y14018D03*
D166*
X216586Y14018D03*
D22*
X234886Y13818D03*
D167*
X216486Y13818D03*
D43*
X234486Y13618D03*
D168*
X216386Y13618D03*
D33*
X233986Y13418D03*
D169*
X216286Y13418D03*
D24*
X233586Y13218D03*
D66*
X216086Y13218D03*
D51*
X232886Y13018D03*
D170*
X215986Y13018D03*
D13*
X232186Y12818D03*
D171*
X215886Y12818D03*
D172*
X215686Y12618D03*
D65*
X215586Y12418D03*
D144*
X215386Y12218D03*
D145*
X215286Y12018D03*
D146*
X215186Y11818D03*
D142*
X214986Y11618D03*
D148*
X214786Y11418D03*
D150*
X214686Y11218D03*
D151*
X214486Y11018D03*
D63*
X214286Y10818D03*
D154*
X214086Y10618D03*
D155*
X213886Y10418D03*
D156*
X213686Y10218D03*
D62*
X213486Y10018D03*
D35*
X213186Y9818D03*
D30*
X212986Y9618D03*
D159*
X212686Y9418D03*
D56*
X212486Y9218D03*
D38*
X212086Y9018D03*
D34*
X211786Y8818D03*
D162*
X211486Y8618D03*
D141*
X210986Y8418D03*
D50*
X210586Y8218D03*
D33*
X209786Y8018D03*
D11*
X74168Y17526D02*
X70358Y26162D01*
X74168Y17526D02*
X75946Y18542D01*
X80518Y15494D01*
X84074Y19050D01*
X81026Y23622D01*
X83058Y28702D02*
X88646Y29718D01*
X88646Y34798D01*
X82804Y35814D01*
X80772Y40640D02*
X84074Y45466D01*
X80518Y49022D01*
X75692Y45720D01*
X71120Y47498D02*
X69850Y53594D01*
X65024Y53594D01*
X63754Y47498D01*
X59182Y45720D02*
X54102Y49022D01*
X50546Y45466D01*
X54102Y40640D01*
X51816Y35814D02*
X46228Y34798D01*
X46228Y29718D01*
X51816Y28702D01*
X53848Y23622D02*
X50546Y19050D01*
X54102Y15494D01*
X58674Y18542D01*
X60706Y17526D01*
X64262Y26162D01*
X64110Y26239D01*
X63961Y26319D01*
X63813Y26403D01*
X63667Y26491D01*
X63524Y26582D01*
X63383Y26677D01*
X63244Y26775D01*
X63107Y26876D01*
X62973Y26981D01*
X62842Y27089D01*
X62714Y27200D01*
X62588Y27314D01*
X62465Y27432D01*
X62345Y27552D01*
X62228Y27675D01*
X62114Y27801D01*
X62003Y27930D01*
X61895Y28062D01*
X61791Y28196D01*
X61690Y28332D01*
X61592Y28471D01*
X61498Y28613D01*
X61407Y28757D01*
X61320Y28902D01*
X61236Y29050D01*
X61156Y29200D01*
X61080Y29352D01*
X61007Y29506D01*
X60939Y29662D01*
X60874Y29819D01*
X60813Y29977D01*
X60756Y30137D01*
X60703Y30299D01*
X60653Y30462D01*
X60608Y30625D01*
X60567Y30790D01*
X60530Y30956D01*
X60497Y31123D01*
X60468Y31290D01*
X60443Y31459D01*
X60423Y31627D01*
X60406Y31796D01*
X60394Y31966D01*
X60385Y32136D01*
X60381Y32306D01*
X60382Y32476D01*
X60386Y32646D01*
X60394Y32815D01*
X60407Y32985D01*
X60424Y33154D01*
X60445Y33323D01*
X60470Y33491D01*
X60499Y33658D01*
X60532Y33825D01*
X60570Y33991D01*
X60611Y34156D01*
X60656Y34319D01*
X60706Y34482D01*
X60759Y34643D01*
X60817Y34803D01*
X60878Y34962D01*
X60943Y35119D01*
X61012Y35274D01*
X61085Y35428D01*
X61161Y35580D01*
X61242Y35729D01*
X61325Y35877D01*
X61413Y36023D01*
X61504Y36167D01*
X61598Y36308D01*
X61696Y36447D01*
X61798Y36583D01*
X61902Y36717D01*
X62010Y36849D01*
X62121Y36977D01*
X62235Y37103D01*
X62353Y37226D01*
X62473Y37346D01*
X62596Y37463D01*
X62722Y37577D01*
X62851Y37688D01*
X62982Y37796D01*
X63116Y37901D01*
X63253Y38002D01*
X63392Y38100D01*
X63533Y38194D01*
X63677Y38285D01*
X63823Y38372D01*
X63971Y38456D01*
X64120Y38536D01*
X64272Y38613D01*
X64426Y38685D01*
X64581Y38754D01*
X64738Y38819D01*
X64897Y38880D01*
X65057Y38938D01*
X65218Y38991D01*
X65381Y39040D01*
X65545Y39085D01*
X65710Y39127D01*
X65876Y39164D01*
X66042Y39197D01*
X66210Y39226D01*
X66378Y39251D01*
X66547Y39272D01*
X66716Y39288D01*
X66885Y39301D01*
X67055Y39309D01*
X67225Y39313D01*
X67395Y39313D01*
X67565Y39309D01*
X67735Y39301D01*
X67904Y39288D01*
X68073Y39272D01*
X68242Y39251D01*
X68410Y39226D01*
X68578Y39197D01*
X68744Y39164D01*
X68910Y39127D01*
X69075Y39085D01*
X69239Y39040D01*
X69402Y38991D01*
X69563Y38938D01*
X69723Y38880D01*
X69882Y38819D01*
X70039Y38754D01*
X70194Y38685D01*
X70348Y38613D01*
X70500Y38536D01*
X70649Y38456D01*
X70797Y38372D01*
X70943Y38285D01*
X71087Y38194D01*
X71228Y38100D01*
X71367Y38002D01*
X71504Y37901D01*
X71638Y37796D01*
X71769Y37688D01*
X71898Y37577D01*
X72024Y37463D01*
X72147Y37346D01*
X72267Y37226D01*
X72385Y37103D01*
X72499Y36977D01*
X72610Y36849D01*
X72718Y36717D01*
X72822Y36583D01*
X72924Y36447D01*
X73022Y36308D01*
X73116Y36167D01*
X73207Y36023D01*
X73295Y35877D01*
X73378Y35729D01*
X73459Y35580D01*
X73535Y35428D01*
X73608Y35274D01*
X73677Y35119D01*
X73742Y34962D01*
X73803Y34803D01*
X73861Y34643D01*
X73914Y34482D01*
X73964Y34319D01*
X74009Y34156D01*
X74050Y33991D01*
X74088Y33825D01*
X74121Y33658D01*
X74150Y33491D01*
X74175Y33323D01*
X74196Y33154D01*
X74213Y32985D01*
X74226Y32815D01*
X74234Y32646D01*
X74238Y32476D01*
X74239Y32306D01*
X74235Y32136D01*
X74226Y31966D01*
X74214Y31796D01*
X74197Y31627D01*
X74177Y31459D01*
X74152Y31290D01*
X74123Y31123D01*
X74090Y30956D01*
X74053Y30790D01*
X74012Y30625D01*
X73967Y30462D01*
X73917Y30299D01*
X73864Y30137D01*
X73807Y29977D01*
X73746Y29819D01*
X73681Y29662D01*
X73613Y29506D01*
X73540Y29352D01*
X73464Y29200D01*
X73384Y29050D01*
X73300Y28902D01*
X73213Y28757D01*
X73122Y28613D01*
X73028Y28471D01*
X72930Y28332D01*
X72829Y28196D01*
X72725Y28062D01*
X72617Y27930D01*
X72506Y27801D01*
X72392Y27675D01*
X72275Y27552D01*
X72155Y27432D01*
X72032Y27314D01*
X71906Y27200D01*
X71778Y27089D01*
X71647Y26981D01*
X71513Y26876D01*
X71376Y26775D01*
X71237Y26677D01*
X71096Y26582D01*
X70953Y26491D01*
X70807Y26403D01*
X70659Y26319D01*
X70510Y26239D01*
X70358Y26162D01*
X80965Y23744D02*
X81157Y24046D01*
X81342Y24351D01*
X81521Y24661D01*
X81692Y24975D01*
X81856Y25293D01*
X82012Y25614D01*
X82161Y25939D01*
X82303Y26267D01*
X82437Y26598D01*
X82563Y26933D01*
X82682Y27270D01*
X82793Y27609D01*
X82896Y27952D01*
X82992Y28296D01*
X82850Y35870D02*
X82755Y36230D01*
X82652Y36588D01*
X82541Y36944D01*
X82421Y37296D01*
X82294Y37646D01*
X82158Y37993D01*
X82014Y38337D01*
X81862Y38677D01*
X81702Y39013D01*
X81534Y39346D01*
X81359Y39675D01*
X81175Y39999D01*
X80985Y40319D01*
X80787Y40635D01*
X75631Y45613D02*
X75308Y45801D01*
X74981Y45980D01*
X74650Y46152D01*
X74315Y46316D01*
X73976Y46473D01*
X73633Y46621D01*
X73287Y46761D01*
X72938Y46893D01*
X72585Y47017D01*
X72230Y47132D01*
X71873Y47239D01*
X71513Y47337D01*
X71150Y47427D01*
X63754Y47534D02*
X63386Y47446D01*
X63020Y47348D01*
X62657Y47243D01*
X62296Y47128D01*
X61939Y47005D01*
X61584Y46873D01*
X61232Y46733D01*
X60884Y46585D01*
X60540Y46428D01*
X60199Y46263D01*
X59862Y46090D01*
X59530Y45909D01*
X59202Y45720D01*
X53975Y40599D02*
X53778Y40308D01*
X53588Y40012D01*
X53405Y39712D01*
X53228Y39407D01*
X53059Y39099D01*
X52897Y38787D01*
X52742Y38471D01*
X52594Y38152D01*
X52454Y37830D01*
X52321Y37504D01*
X52195Y37175D01*
X52078Y36844D01*
X51967Y36510D01*
X51865Y36173D01*
X51770Y35834D01*
X51841Y28722D02*
X51921Y28366D01*
X52009Y28012D01*
X52105Y27661D01*
X52210Y27311D01*
X52322Y26965D01*
X52442Y26621D01*
X52570Y26279D01*
X52706Y25941D01*
X52849Y25606D01*
X53000Y25274D01*
X53159Y24946D01*
X53325Y24622D01*
X53499Y24301D01*
X53680Y23985D01*
X53868Y23673D01*
M02*
