M48
;GenerationSoftware,Autodesk,EAGLE,9.1.1*%
;CreationDate,2018-08-10T05:50:23Z*%
FMAT,2
ICI,OFF
METRIC,TZ,000.000
T4C0.305
T3C0.700
T2C0.889
T1C3.000
%
G90
M71
T1
X2000Y52800
X28000Y52800
X28000Y2000
X2000Y2000
T2
X28560Y30500
X28560Y33040
X28560Y35580
X28560Y38120
X1430Y43200
X28560Y40660
X28560Y43200
X28560Y45740
X28560Y48280
X20693Y22031
X18153Y22031
X1430Y15260
X1430Y17800
X1430Y20340
X1430Y22880
X1430Y25420
X1430Y27960
X1430Y30500
X1430Y33040
X1430Y35580
X1430Y38120
X1430Y40660
X1430Y45740
X1430Y48280
X28560Y15260
X28560Y17800
X28560Y20340
X28560Y22880
X28560Y25420
X28560Y27960
T3
X11495Y1699
X11495Y1191
X18505Y1699
X18505Y1191
X12638Y4137
X17362Y4137
X17616Y4137
X12384Y4137
T4
X10414Y43942
X10414Y42926
X4064Y42164
X27838Y21641
X27788Y24181
X6960Y8001
X10922Y21184
X15189Y8179
X15494Y12827
X15494Y16485
X10871Y20117
X14097Y8179
X7188Y14554
X5097Y8128
X8033Y17805
X9500Y46279
X7798Y38227
X7722Y36932
X14249Y28092
X15570Y28143
X25502Y24181
X25171Y38202
X19279Y14656
X26213Y19101
X838Y44475
X26289Y37033
X22073Y35662
X22911Y24333
X16789Y28118
X22200Y33122
X24384Y24257
X27051Y18974
X9804Y5512
X13106Y28219
X11836Y28169
X10592Y28118
X9271Y28118
X13208Y23622
X21615Y17145
X13818Y24206
X16916Y24206
X15062Y23571
X17177Y7537
X5207Y10502
X15596Y6782
X5867Y9906
X5258Y8915
X5131Y11913
X12954Y21590
X14732Y21590
X9347Y11684
X12700Y10160
X16002Y8128
X19304Y8890
X5588Y25654
X4724Y31217
X23647Y25629
X12217Y13005
X13792Y12979
X8484Y28016
X838Y26721
X838Y24155
X813Y34315
X813Y36906
X838Y47041
X29159Y21641
X16205Y15773
X838Y21666
X2388Y19202
X4978Y19202
X4267Y16358
X6960Y13259
X19583Y3353
X26289Y24181
X19583Y4369
X19583Y5385
X24155Y11735
X26695Y13513
X28473Y13513
X21615Y19863
X21615Y18847
X20574Y8890
X21844Y8890
X8382Y47752
X9398Y47752
X10414Y47752
X21844Y47752
X20828Y47752
X19812Y47752
X10414Y44958
M30