G04 EAGLE Gerber RS-274X export*
G75*
%MOMM*%
%FSLAX34Y34*%
%LPD*%
%AMOC8*
5,1,8,0,0,1.08239X$1,22.5*%
G01*
%ADD10C,0.101600*%
%ADD11C,0.076200*%
%ADD12C,0.127000*%
%ADD13C,0.254000*%
%ADD14C,0.203200*%
%ADD15C,0.152400*%
%ADD16C,0.304800*%
%ADD17C,0.200000*%
%ADD18R,0.250000X0.250000*%
%ADD19C,0.718419*%


D10*
X244093Y71374D02*
X237992Y71374D01*
X236466Y72899D01*
X236466Y75950D01*
X237992Y77475D01*
X244093Y77475D01*
X245618Y75950D01*
X245618Y72899D01*
X244093Y71374D01*
X242567Y74425D02*
X245618Y77475D01*
X244093Y80729D02*
X239517Y80729D01*
X244093Y80729D02*
X245618Y82254D01*
X244093Y83780D01*
X245618Y85305D01*
X244093Y86830D01*
X239517Y86830D01*
X239517Y90084D02*
X239517Y91610D01*
X245618Y91610D01*
X245618Y93135D02*
X245618Y90084D01*
X236466Y91610D02*
X234941Y91610D01*
X239517Y96321D02*
X239517Y97846D01*
X245618Y97846D01*
X245618Y96321D02*
X245618Y99372D01*
X236466Y97846D02*
X234941Y97846D01*
X239517Y104083D02*
X239517Y108659D01*
X239517Y104083D02*
X241042Y102558D01*
X244093Y102558D01*
X245618Y104083D01*
X245618Y108659D01*
X58681Y108966D02*
X52579Y108966D01*
X58681Y108966D02*
X60206Y107441D01*
X60206Y104390D01*
X58681Y102865D01*
X52579Y102865D01*
X51054Y104390D01*
X51054Y107441D01*
X52579Y108966D01*
X54105Y105915D02*
X51054Y102865D01*
X52579Y99611D02*
X57155Y99611D01*
X52579Y99611D02*
X51054Y98086D01*
X52579Y96560D01*
X51054Y95035D01*
X52579Y93510D01*
X57155Y93510D01*
X57155Y90256D02*
X57155Y88730D01*
X51054Y88730D01*
X51054Y87205D02*
X51054Y90256D01*
X60206Y88730D02*
X61731Y88730D01*
X57155Y84019D02*
X57155Y82494D01*
X51054Y82494D01*
X51054Y84019D02*
X51054Y80968D01*
X60206Y82494D02*
X61731Y82494D01*
X57155Y76257D02*
X57155Y71681D01*
X57155Y76257D02*
X55630Y77782D01*
X52579Y77782D01*
X51054Y76257D01*
X51054Y71681D01*
X240022Y19304D02*
X249174Y19304D01*
X240022Y19304D02*
X240022Y23880D01*
X241548Y25405D01*
X244598Y25405D01*
X246123Y23880D01*
X246123Y19304D01*
X246123Y22355D02*
X249174Y25405D01*
X240022Y33235D02*
X241548Y34760D01*
X240022Y33235D02*
X240022Y30184D01*
X241548Y28659D01*
X243073Y28659D01*
X244598Y30184D01*
X244598Y33235D01*
X246123Y34760D01*
X247649Y34760D01*
X249174Y33235D01*
X249174Y30184D01*
X247649Y28659D01*
X249174Y41065D02*
X240022Y41065D01*
X240022Y38014D02*
X240022Y44116D01*
X236134Y111304D02*
X226982Y111304D01*
X236134Y111304D02*
X236134Y115880D01*
X234609Y117405D01*
X228508Y117405D01*
X226982Y115880D01*
X226982Y111304D01*
X226982Y120659D02*
X236134Y120659D01*
X226982Y120659D02*
X226982Y126760D01*
X231558Y123710D02*
X231558Y120659D01*
X234609Y130014D02*
X226982Y130014D01*
X234609Y130014D02*
X236134Y131540D01*
X236134Y134590D01*
X234609Y136116D01*
X226982Y136116D01*
X27432Y478028D02*
X27432Y484129D01*
X30483Y487180D01*
X33533Y484129D01*
X33533Y478028D01*
X33533Y482604D02*
X27432Y482604D01*
X36787Y487180D02*
X42888Y487180D01*
X42888Y485655D01*
X36787Y479553D01*
X36787Y478028D01*
X27432Y460253D02*
X27432Y454152D01*
X27432Y460253D02*
X30483Y463304D01*
X33533Y460253D01*
X33533Y454152D01*
X33533Y458728D02*
X27432Y458728D01*
X39838Y461779D02*
X42888Y463304D01*
X39838Y461779D02*
X36787Y458728D01*
X36787Y455677D01*
X38312Y454152D01*
X41363Y454152D01*
X42888Y455677D01*
X42888Y457203D01*
X41363Y458728D01*
X36787Y458728D01*
X27432Y434091D02*
X27432Y427990D01*
X27432Y434091D02*
X30483Y437142D01*
X33533Y434091D01*
X33533Y427990D01*
X33533Y432566D02*
X27432Y432566D01*
X36787Y437142D02*
X42888Y437142D01*
X36787Y437142D02*
X36787Y432566D01*
X39838Y434091D01*
X41363Y434091D01*
X42888Y432566D01*
X42888Y429515D01*
X41363Y427990D01*
X38312Y427990D01*
X36787Y429515D01*
X27432Y408437D02*
X27432Y402336D01*
X27432Y408437D02*
X30483Y411488D01*
X33533Y408437D01*
X33533Y402336D01*
X33533Y406912D02*
X27432Y406912D01*
X41363Y402336D02*
X41363Y411488D01*
X36787Y406912D01*
X42888Y406912D01*
X27178Y383037D02*
X27178Y376936D01*
X27178Y383037D02*
X30229Y386088D01*
X33279Y383037D01*
X33279Y376936D01*
X33279Y381512D02*
X27178Y381512D01*
X36533Y384563D02*
X38058Y386088D01*
X41109Y386088D01*
X42634Y384563D01*
X42634Y383037D01*
X41109Y381512D01*
X39584Y381512D01*
X41109Y381512D02*
X42634Y379987D01*
X42634Y378461D01*
X41109Y376936D01*
X38058Y376936D01*
X36533Y378461D01*
X27432Y358399D02*
X27432Y352298D01*
X27432Y358399D02*
X30483Y361450D01*
X33533Y358399D01*
X33533Y352298D01*
X33533Y356874D02*
X27432Y356874D01*
X36787Y352298D02*
X42888Y352298D01*
X36787Y352298D02*
X42888Y358399D01*
X42888Y359925D01*
X41363Y361450D01*
X38312Y361450D01*
X36787Y359925D01*
X27432Y331729D02*
X27432Y325628D01*
X27432Y331729D02*
X30483Y334780D01*
X33533Y331729D01*
X33533Y325628D01*
X33533Y330204D02*
X27432Y330204D01*
X36787Y331729D02*
X39838Y334780D01*
X39838Y325628D01*
X42888Y325628D02*
X36787Y325628D01*
X27432Y306837D02*
X27432Y300736D01*
X27432Y306837D02*
X30483Y309888D01*
X33533Y306837D01*
X33533Y300736D01*
X33533Y305312D02*
X27432Y305312D01*
X36787Y302261D02*
X36787Y308363D01*
X38312Y309888D01*
X41363Y309888D01*
X42888Y308363D01*
X42888Y302261D01*
X41363Y300736D01*
X38312Y300736D01*
X36787Y302261D01*
X42888Y308363D01*
D11*
X27305Y283343D02*
X27305Y275971D01*
X30991Y275971D01*
X32220Y277200D01*
X32220Y282115D01*
X30991Y283343D01*
X27305Y283343D01*
X34789Y275971D02*
X37247Y275971D01*
X36018Y275971D02*
X36018Y283343D01*
X34789Y283343D02*
X37247Y283343D01*
X41007Y283343D02*
X43465Y283343D01*
X41007Y283343D02*
X39779Y282115D01*
X39779Y277200D01*
X41007Y275971D01*
X43465Y275971D01*
X44693Y277200D01*
X44693Y282115D01*
X43465Y283343D01*
X30991Y257943D02*
X32220Y256715D01*
X30991Y257943D02*
X28534Y257943D01*
X27305Y256715D01*
X27305Y251800D01*
X28534Y250571D01*
X30991Y250571D01*
X32220Y251800D01*
X34789Y250571D02*
X34789Y257943D01*
X34789Y250571D02*
X39704Y250571D01*
X42273Y250571D02*
X42273Y257943D01*
X42273Y253028D02*
X47188Y257943D01*
X43502Y254257D02*
X47188Y250571D01*
X30991Y231781D02*
X32220Y230553D01*
X30991Y231781D02*
X28534Y231781D01*
X27305Y230553D01*
X27305Y229324D01*
X28534Y228095D01*
X30991Y228095D01*
X32220Y226866D01*
X32220Y225638D01*
X30991Y224409D01*
X28534Y224409D01*
X27305Y225638D01*
X34789Y224409D02*
X34789Y231781D01*
X37247Y226866D02*
X34789Y224409D01*
X37247Y226866D02*
X39704Y224409D01*
X39704Y231781D01*
X43502Y231781D02*
X45959Y231781D01*
X43502Y231781D02*
X42273Y230553D01*
X42273Y225638D01*
X43502Y224409D01*
X45959Y224409D01*
X47188Y225638D01*
X47188Y230553D01*
X45959Y231781D01*
D10*
X32008Y207526D02*
X33533Y206001D01*
X32008Y207526D02*
X28957Y207526D01*
X27432Y206001D01*
X27432Y199899D01*
X28957Y198374D01*
X32008Y198374D01*
X33533Y199899D01*
X33533Y202950D01*
X30483Y202950D01*
X36787Y198374D02*
X36787Y207526D01*
X42888Y198374D01*
X42888Y207526D01*
X46142Y207526D02*
X46142Y198374D01*
X50718Y198374D01*
X52244Y199899D01*
X52244Y206001D01*
X50718Y207526D01*
X46142Y207526D01*
X27178Y156980D02*
X27178Y147828D01*
X27178Y156980D02*
X31754Y156980D01*
X33279Y155455D01*
X33279Y152404D01*
X31754Y150879D01*
X27178Y150879D01*
X30229Y150879D02*
X33279Y147828D01*
X36533Y147828D02*
X36533Y153929D01*
X39584Y156980D01*
X42634Y153929D01*
X42634Y147828D01*
X42634Y152404D02*
X36533Y152404D01*
X45888Y156980D02*
X45888Y147828D01*
X48939Y150879D01*
X51990Y147828D01*
X51990Y156980D01*
X254594Y479044D02*
X260695Y479044D01*
X254594Y479044D02*
X260695Y485145D01*
X260695Y486671D01*
X259170Y488196D01*
X256119Y488196D01*
X254594Y486671D01*
X263949Y488196D02*
X270050Y488196D01*
X270050Y486671D01*
X263949Y480569D01*
X263949Y479044D01*
X260695Y452882D02*
X254594Y452882D01*
X260695Y458983D01*
X260695Y460509D01*
X259170Y462034D01*
X256119Y462034D01*
X254594Y460509D01*
X268525Y462034D02*
X268525Y452882D01*
X263949Y457458D02*
X268525Y462034D01*
X270050Y457458D02*
X263949Y457458D01*
X260695Y427736D02*
X254594Y427736D01*
X260695Y433837D01*
X260695Y435363D01*
X259170Y436888D01*
X256119Y436888D01*
X254594Y435363D01*
X263949Y435363D02*
X265474Y436888D01*
X268525Y436888D01*
X270050Y435363D01*
X270050Y433837D01*
X268525Y432312D01*
X266999Y432312D01*
X268525Y432312D02*
X270050Y430787D01*
X270050Y429261D01*
X268525Y427736D01*
X265474Y427736D01*
X263949Y429261D01*
X260695Y402844D02*
X254594Y402844D01*
X260695Y408945D01*
X260695Y410471D01*
X259170Y411996D01*
X256119Y411996D01*
X254594Y410471D01*
X263949Y402844D02*
X270050Y402844D01*
X263949Y402844D02*
X270050Y408945D01*
X270050Y410471D01*
X268525Y411996D01*
X265474Y411996D01*
X263949Y410471D01*
X257644Y386088D02*
X254594Y383037D01*
X257644Y386088D02*
X257644Y376936D01*
X254594Y376936D02*
X260695Y376936D01*
X266999Y384563D02*
X270050Y386088D01*
X266999Y384563D02*
X263949Y381512D01*
X263949Y378461D01*
X265474Y376936D01*
X268525Y376936D01*
X270050Y378461D01*
X270050Y379987D01*
X268525Y381512D01*
X263949Y381512D01*
X257644Y359164D02*
X254594Y356113D01*
X257644Y359164D02*
X257644Y350012D01*
X254594Y350012D02*
X260695Y350012D01*
X263949Y359164D02*
X270050Y359164D01*
X263949Y359164D02*
X263949Y354588D01*
X266999Y356113D01*
X268525Y356113D01*
X270050Y354588D01*
X270050Y351537D01*
X268525Y350012D01*
X265474Y350012D01*
X263949Y351537D01*
D11*
X250317Y334397D02*
X250317Y327025D01*
X252774Y331940D02*
X250317Y334397D01*
X252774Y331940D02*
X255232Y334397D01*
X255232Y327025D01*
X257801Y327025D02*
X260259Y327025D01*
X259030Y327025D02*
X259030Y334397D01*
X257801Y334397D02*
X260259Y334397D01*
X266477Y334397D02*
X267705Y333169D01*
X266477Y334397D02*
X264019Y334397D01*
X262791Y333169D01*
X262791Y331940D01*
X264019Y330711D01*
X266477Y330711D01*
X267705Y329482D01*
X267705Y328254D01*
X266477Y327025D01*
X264019Y327025D01*
X262791Y328254D01*
X271503Y334397D02*
X273961Y334397D01*
X271503Y334397D02*
X270275Y333169D01*
X270275Y328254D01*
X271503Y327025D01*
X273961Y327025D01*
X275190Y328254D01*
X275190Y333169D01*
X273961Y334397D01*
X251079Y308743D02*
X251079Y301371D01*
X253536Y306286D02*
X251079Y308743D01*
X253536Y306286D02*
X255994Y308743D01*
X255994Y301371D01*
X259792Y308743D02*
X262249Y308743D01*
X259792Y308743D02*
X258563Y307515D01*
X258563Y302600D01*
X259792Y301371D01*
X262249Y301371D01*
X263478Y302600D01*
X263478Y307515D01*
X262249Y308743D01*
X269733Y308743D02*
X270962Y307515D01*
X269733Y308743D02*
X267276Y308743D01*
X266047Y307515D01*
X266047Y306286D01*
X267276Y305057D01*
X269733Y305057D01*
X270962Y303828D01*
X270962Y302600D01*
X269733Y301371D01*
X267276Y301371D01*
X266047Y302600D01*
X273531Y301371D02*
X275989Y301371D01*
X274760Y301371D02*
X274760Y308743D01*
X273531Y308743D02*
X275989Y308743D01*
D10*
X254512Y284742D02*
X256037Y283217D01*
X254512Y284742D02*
X251461Y284742D01*
X249936Y283217D01*
X249936Y281691D01*
X251461Y280166D01*
X254512Y280166D01*
X256037Y278641D01*
X256037Y277115D01*
X254512Y275590D01*
X251461Y275590D01*
X249936Y277115D01*
X263867Y284742D02*
X265392Y283217D01*
X263867Y284742D02*
X260816Y284742D01*
X259291Y283217D01*
X259291Y277115D01*
X260816Y275590D01*
X263867Y275590D01*
X265392Y277115D01*
X268646Y275590D02*
X268646Y284742D01*
X268646Y278641D02*
X274748Y284742D01*
X270172Y280166D02*
X274748Y275590D01*
X257644Y259088D02*
X254594Y256037D01*
X257644Y259088D02*
X257644Y249936D01*
X254594Y249936D02*
X260695Y249936D01*
X263949Y256037D02*
X266999Y259088D01*
X266999Y249936D01*
X263949Y249936D02*
X270050Y249936D01*
D11*
X254889Y233051D02*
X254889Y225679D01*
X254889Y233051D02*
X258575Y233051D01*
X259804Y231823D01*
X259804Y229365D01*
X258575Y228136D01*
X254889Y228136D01*
X257346Y228136D02*
X259804Y225679D01*
X267288Y225679D02*
X262373Y233051D01*
X267288Y233051D02*
X262373Y225679D01*
X269857Y225679D02*
X269857Y233051D01*
X269857Y225679D02*
X273543Y225679D01*
X274772Y226908D01*
X274772Y231823D01*
X273543Y233051D01*
X269857Y233051D01*
X257346Y208159D02*
X257346Y200787D01*
X254889Y208159D02*
X259804Y208159D01*
X262373Y208159D02*
X267288Y200787D01*
X262373Y200787D02*
X267288Y208159D01*
X269857Y208159D02*
X269857Y200787D01*
X273543Y200787D01*
X274772Y202016D01*
X274772Y206931D01*
X273543Y208159D01*
X269857Y208159D01*
D10*
X251206Y182888D02*
X251206Y173736D01*
X251206Y182888D02*
X255782Y182888D01*
X257307Y181363D01*
X257307Y178312D01*
X255782Y176787D01*
X251206Y176787D01*
X254257Y176787D02*
X257307Y173736D01*
X265137Y182888D02*
X266662Y181363D01*
X265137Y182888D02*
X262086Y182888D01*
X260561Y181363D01*
X260561Y179837D01*
X262086Y178312D01*
X265137Y178312D01*
X266662Y176787D01*
X266662Y175261D01*
X265137Y173736D01*
X262086Y173736D01*
X260561Y175261D01*
X272967Y173736D02*
X272967Y182888D01*
X269916Y182888D02*
X276018Y182888D01*
X28957Y183396D02*
X27432Y181871D01*
X28957Y183396D02*
X32008Y183396D01*
X33533Y181871D01*
X33533Y180345D01*
X32008Y178820D01*
X30483Y178820D01*
X32008Y178820D02*
X33533Y177295D01*
X33533Y175769D01*
X32008Y174244D01*
X28957Y174244D01*
X27432Y175769D01*
X36787Y177295D02*
X36787Y183396D01*
X36787Y177295D02*
X39838Y174244D01*
X42888Y177295D01*
X42888Y183396D01*
X46142Y181871D02*
X47668Y183396D01*
X50718Y183396D01*
X52244Y181871D01*
X52244Y180345D01*
X50718Y178820D01*
X49193Y178820D01*
X50718Y178820D02*
X52244Y177295D01*
X52244Y175769D01*
X50718Y174244D01*
X47668Y174244D01*
X46142Y175769D01*
X255528Y156979D02*
X256968Y155539D01*
X255528Y156979D02*
X252647Y156979D01*
X251206Y155539D01*
X251206Y149777D01*
X252647Y148336D01*
X255528Y148336D01*
X256968Y149777D01*
X256968Y152658D01*
X254087Y152658D01*
X260093Y156979D02*
X260093Y148336D01*
X265856Y148336D02*
X260093Y156979D01*
X265856Y156979D02*
X265856Y148336D01*
X268981Y148336D02*
X268981Y156979D01*
X268981Y148336D02*
X273303Y148336D01*
X274743Y149777D01*
X274743Y155539D01*
X273303Y156979D01*
X268981Y156979D01*
X183896Y236474D02*
X183896Y245117D01*
X189658Y236474D01*
X189658Y245117D01*
X192783Y245117D02*
X192783Y236474D01*
X192783Y245117D02*
X198546Y245117D01*
X195665Y240796D02*
X192783Y240796D01*
X205993Y245117D02*
X207433Y243677D01*
X205993Y245117D02*
X203111Y245117D01*
X201671Y243677D01*
X201671Y237915D01*
X203111Y236474D01*
X205993Y236474D01*
X207433Y237915D01*
X52316Y11941D02*
X55367Y8890D01*
X52316Y11941D02*
X61468Y11941D01*
X61468Y14991D02*
X61468Y8890D01*
X55367Y18245D02*
X52316Y21296D01*
X61468Y21296D01*
X61468Y24346D02*
X61468Y18245D01*
D12*
X158332Y86126D02*
X186272Y86126D01*
X158332Y86126D02*
X158332Y98826D01*
X186272Y98826D01*
X186272Y86126D01*
X123862Y160508D02*
X95922Y160508D01*
X123862Y160508D02*
X123862Y147808D01*
X95922Y147808D01*
X95922Y160508D01*
X130830Y148500D02*
X130830Y176440D01*
X143530Y176440D01*
X143530Y148500D01*
X130830Y148500D01*
X123862Y174986D02*
X95922Y174986D01*
X123862Y174986D02*
X123862Y162286D01*
X95922Y162286D01*
X95922Y174986D01*
X167914Y176948D02*
X167914Y204888D01*
X180614Y204888D01*
X180614Y176948D01*
X167914Y176948D01*
X121284Y96666D02*
X121284Y84166D01*
X104284Y84166D01*
X104284Y96666D01*
X121284Y96666D01*
X111384Y94226D02*
X111384Y86606D01*
X115324Y90416D02*
X111514Y94226D01*
X115324Y90416D02*
X111514Y86606D01*
X91914Y60588D02*
X135094Y60588D01*
X91914Y60588D02*
X91914Y80908D01*
X135094Y80908D01*
X135094Y60588D01*
D13*
X114440Y42390D02*
X185560Y42390D01*
X185560Y24610D01*
X193180Y24610D01*
X193180Y4290D01*
X185560Y4290D01*
X185560Y-8410D01*
X114440Y-8410D01*
X114440Y4290D01*
X106820Y4290D01*
X106820Y24610D01*
X114440Y24610D01*
X114440Y42390D01*
D12*
X125602Y110720D02*
X125602Y123720D01*
X99602Y123720D02*
X99602Y110720D01*
X119102Y123720D02*
X125602Y123720D01*
X106102Y123720D02*
X99602Y123720D01*
X88302Y74656D02*
X60362Y74656D01*
X88302Y74656D02*
X88302Y61956D01*
X60362Y61956D01*
X60362Y74656D01*
X160110Y161564D02*
X188050Y161564D01*
X160110Y161564D02*
X160110Y174264D01*
X188050Y174264D01*
X188050Y161564D01*
D14*
X112940Y230568D02*
X112942Y230657D01*
X112948Y230746D01*
X112958Y230835D01*
X112972Y230923D01*
X112989Y231010D01*
X113011Y231096D01*
X113037Y231182D01*
X113066Y231266D01*
X113099Y231349D01*
X113135Y231430D01*
X113176Y231510D01*
X113219Y231587D01*
X113266Y231663D01*
X113317Y231736D01*
X113370Y231807D01*
X113427Y231876D01*
X113487Y231942D01*
X113550Y232006D01*
X113615Y232066D01*
X113683Y232124D01*
X113754Y232178D01*
X113827Y232229D01*
X113902Y232277D01*
X113979Y232322D01*
X114058Y232363D01*
X114139Y232400D01*
X114221Y232434D01*
X114305Y232465D01*
X114390Y232491D01*
X114476Y232514D01*
X114563Y232532D01*
X114651Y232547D01*
X114740Y232558D01*
X114829Y232565D01*
X114918Y232568D01*
X115007Y232567D01*
X115096Y232562D01*
X115184Y232553D01*
X115273Y232540D01*
X115360Y232523D01*
X115447Y232503D01*
X115533Y232478D01*
X115617Y232450D01*
X115700Y232418D01*
X115782Y232382D01*
X115862Y232343D01*
X115940Y232300D01*
X116016Y232254D01*
X116090Y232204D01*
X116162Y232151D01*
X116231Y232095D01*
X116298Y232036D01*
X116362Y231974D01*
X116423Y231910D01*
X116482Y231842D01*
X116537Y231772D01*
X116589Y231700D01*
X116638Y231625D01*
X116683Y231549D01*
X116725Y231470D01*
X116763Y231390D01*
X116798Y231308D01*
X116829Y231224D01*
X116857Y231139D01*
X116880Y231053D01*
X116900Y230966D01*
X116916Y230879D01*
X116928Y230790D01*
X116936Y230702D01*
X116940Y230613D01*
X116940Y230523D01*
X116936Y230434D01*
X116928Y230346D01*
X116916Y230257D01*
X116900Y230170D01*
X116880Y230083D01*
X116857Y229997D01*
X116829Y229912D01*
X116798Y229828D01*
X116763Y229746D01*
X116725Y229666D01*
X116683Y229587D01*
X116638Y229511D01*
X116589Y229436D01*
X116537Y229364D01*
X116482Y229294D01*
X116423Y229226D01*
X116362Y229162D01*
X116298Y229100D01*
X116231Y229041D01*
X116162Y228985D01*
X116090Y228932D01*
X116016Y228882D01*
X115940Y228836D01*
X115862Y228793D01*
X115782Y228754D01*
X115700Y228718D01*
X115617Y228686D01*
X115533Y228658D01*
X115447Y228633D01*
X115360Y228613D01*
X115273Y228596D01*
X115184Y228583D01*
X115096Y228574D01*
X115007Y228569D01*
X114918Y228568D01*
X114829Y228571D01*
X114740Y228578D01*
X114651Y228589D01*
X114563Y228604D01*
X114476Y228622D01*
X114390Y228645D01*
X114305Y228671D01*
X114221Y228702D01*
X114139Y228736D01*
X114058Y228773D01*
X113979Y228814D01*
X113902Y228859D01*
X113827Y228907D01*
X113754Y228958D01*
X113683Y229012D01*
X113615Y229070D01*
X113550Y229130D01*
X113487Y229194D01*
X113427Y229260D01*
X113370Y229329D01*
X113317Y229400D01*
X113266Y229473D01*
X113219Y229549D01*
X113176Y229626D01*
X113135Y229706D01*
X113099Y229787D01*
X113066Y229870D01*
X113037Y229954D01*
X113011Y230040D01*
X112989Y230126D01*
X112972Y230213D01*
X112958Y230301D01*
X112948Y230390D01*
X112942Y230479D01*
X112940Y230568D01*
D12*
X119460Y226238D02*
X124460Y226238D01*
X119460Y226238D02*
X119460Y221238D01*
X154460Y226238D02*
X159460Y226238D01*
X159460Y221238D01*
X159460Y191238D02*
X159460Y186238D01*
X154460Y186238D01*
X124460Y186238D02*
X119460Y186238D01*
X119460Y191238D01*
D15*
X189944Y132940D02*
X189944Y118690D01*
X159064Y118690D02*
X159064Y132940D01*
X62500Y263000D02*
X62500Y550000D01*
X237500Y550000D01*
X237500Y263000D01*
X62500Y263000D01*
D16*
X175350Y542850D02*
X215350Y542850D01*
X175350Y542850D02*
X175350Y502850D01*
X85350Y492850D02*
X85350Y542850D01*
X155350Y502850D02*
X175350Y502850D01*
X155350Y502850D02*
X155350Y542850D01*
X145350Y542850D01*
X145350Y502850D01*
X125350Y502850D01*
X125350Y542850D01*
X115350Y542850D01*
X115350Y502850D01*
X95350Y502850D01*
X95350Y542850D01*
X85350Y542850D01*
D11*
X109781Y409821D02*
X116052Y409821D01*
X109781Y409821D02*
X116052Y416092D01*
X116052Y417659D01*
X114484Y419227D01*
X111349Y419227D01*
X109781Y417659D01*
X123839Y419227D02*
X125407Y417659D01*
X123839Y419227D02*
X120704Y419227D01*
X119136Y417659D01*
X119136Y411389D01*
X120704Y409821D01*
X123839Y409821D01*
X125407Y411389D01*
X125407Y414524D01*
X122272Y414524D01*
X133194Y409821D02*
X133194Y419227D01*
X128491Y414524D01*
X134762Y414524D01*
X137847Y409821D02*
X137847Y419227D01*
X140982Y416092D01*
X144117Y419227D01*
X144117Y409821D01*
X147202Y411389D02*
X147202Y417659D01*
X148769Y419227D01*
X151905Y419227D01*
X153472Y417659D01*
X153472Y411389D01*
X151905Y409821D01*
X148769Y409821D01*
X147202Y411389D01*
X153472Y417659D01*
X161260Y419227D02*
X161260Y409821D01*
X156557Y414524D02*
X161260Y419227D01*
X162828Y414524D02*
X156557Y414524D01*
X170615Y419227D02*
X172183Y417659D01*
X170615Y419227D02*
X167480Y419227D01*
X165912Y417659D01*
X165912Y416092D01*
X167480Y414524D01*
X170615Y414524D01*
X172183Y412956D01*
X172183Y411389D01*
X170615Y409821D01*
X167480Y409821D01*
X165912Y411389D01*
X175267Y416092D02*
X178403Y419227D01*
X178403Y409821D01*
X181538Y409821D02*
X175267Y409821D01*
X184623Y409821D02*
X184623Y419227D01*
X189326Y419227D01*
X190893Y417659D01*
X190893Y416092D01*
X189326Y414524D01*
X190893Y412956D01*
X190893Y411389D01*
X189326Y409821D01*
X184623Y409821D01*
X184623Y414524D02*
X189326Y414524D01*
X109781Y400852D02*
X109781Y394581D01*
X109781Y400852D02*
X114484Y400852D01*
X116052Y399284D01*
X116052Y394581D01*
X119136Y394581D02*
X119136Y403987D01*
X123839Y403987D01*
X125407Y402419D01*
X125407Y399284D01*
X123839Y397716D01*
X119136Y397716D01*
X122272Y397716D02*
X125407Y394581D01*
X128491Y394581D02*
X128491Y403987D01*
X134762Y403987D01*
X131627Y399284D02*
X128491Y399284D01*
X137847Y403987D02*
X144117Y403987D01*
X137847Y403987D02*
X137847Y399284D01*
X140982Y400852D01*
X142550Y400852D01*
X144117Y399284D01*
X144117Y396149D01*
X142550Y394581D01*
X139414Y394581D01*
X137847Y396149D01*
X147202Y394581D02*
X153472Y394581D01*
X147202Y394581D02*
X153472Y400852D01*
X153472Y402419D01*
X151905Y403987D01*
X148769Y403987D01*
X147202Y402419D01*
X156557Y402419D02*
X158125Y403987D01*
X161260Y403987D01*
X162828Y402419D01*
X162828Y400852D01*
X161260Y399284D01*
X162828Y397716D01*
X162828Y396149D01*
X161260Y394581D01*
X158125Y394581D01*
X156557Y396149D01*
X156557Y397716D01*
X158125Y399284D01*
X156557Y400852D01*
X156557Y402419D01*
X158125Y399284D02*
X161260Y399284D01*
X165912Y402419D02*
X167480Y403987D01*
X170615Y403987D01*
X172183Y402419D01*
X172183Y400852D01*
X170615Y399284D01*
X169047Y399284D01*
X170615Y399284D02*
X172183Y397716D01*
X172183Y396149D01*
X170615Y394581D01*
X167480Y394581D01*
X165912Y396149D01*
X175267Y394581D02*
X181538Y394581D01*
X175267Y394581D02*
X181538Y400852D01*
X181538Y402419D01*
X179970Y403987D01*
X176835Y403987D01*
X175267Y402419D01*
D12*
X84726Y126338D02*
X56786Y126338D01*
X84726Y126338D02*
X84726Y113638D01*
X56786Y113638D01*
X56786Y126338D01*
X59872Y141406D02*
X31932Y141406D01*
X59872Y141406D02*
X59872Y128706D01*
X31932Y128706D01*
X31932Y141406D01*
D17*
X223102Y143012D02*
X223102Y104012D01*
X194102Y104012D01*
X194102Y143012D01*
X223102Y143012D01*
X199602Y123512D02*
X199605Y123733D01*
X199613Y123954D01*
X199626Y124174D01*
X199645Y124394D01*
X199670Y124614D01*
X199699Y124833D01*
X199735Y125051D01*
X199775Y125268D01*
X199821Y125484D01*
X199872Y125699D01*
X199928Y125912D01*
X199990Y126125D01*
X200056Y126335D01*
X200128Y126544D01*
X200205Y126751D01*
X200287Y126956D01*
X200374Y127159D01*
X200466Y127360D01*
X200563Y127559D01*
X200665Y127755D01*
X200771Y127948D01*
X200882Y128139D01*
X200998Y128327D01*
X201119Y128512D01*
X201244Y128694D01*
X201373Y128873D01*
X201507Y129049D01*
X201645Y129222D01*
X201787Y129391D01*
X201933Y129556D01*
X202084Y129718D01*
X202238Y129876D01*
X202396Y130030D01*
X202558Y130181D01*
X202723Y130327D01*
X202892Y130469D01*
X203065Y130607D01*
X203241Y130741D01*
X203420Y130870D01*
X203602Y130995D01*
X203787Y131116D01*
X203975Y131232D01*
X204166Y131343D01*
X204359Y131449D01*
X204555Y131551D01*
X204754Y131648D01*
X204955Y131740D01*
X205158Y131827D01*
X205363Y131909D01*
X205570Y131986D01*
X205779Y132058D01*
X205989Y132124D01*
X206202Y132186D01*
X206415Y132242D01*
X206630Y132293D01*
X206846Y132339D01*
X207063Y132379D01*
X207281Y132415D01*
X207500Y132444D01*
X207720Y132469D01*
X207940Y132488D01*
X208160Y132501D01*
X208381Y132509D01*
X208602Y132512D01*
X208823Y132509D01*
X209044Y132501D01*
X209264Y132488D01*
X209484Y132469D01*
X209704Y132444D01*
X209923Y132415D01*
X210141Y132379D01*
X210358Y132339D01*
X210574Y132293D01*
X210789Y132242D01*
X211002Y132186D01*
X211215Y132124D01*
X211425Y132058D01*
X211634Y131986D01*
X211841Y131909D01*
X212046Y131827D01*
X212249Y131740D01*
X212450Y131648D01*
X212649Y131551D01*
X212845Y131449D01*
X213038Y131343D01*
X213229Y131232D01*
X213417Y131116D01*
X213602Y130995D01*
X213784Y130870D01*
X213963Y130741D01*
X214139Y130607D01*
X214312Y130469D01*
X214481Y130327D01*
X214646Y130181D01*
X214808Y130030D01*
X214966Y129876D01*
X215120Y129718D01*
X215271Y129556D01*
X215417Y129391D01*
X215559Y129222D01*
X215697Y129049D01*
X215831Y128873D01*
X215960Y128694D01*
X216085Y128512D01*
X216206Y128327D01*
X216322Y128139D01*
X216433Y127948D01*
X216539Y127755D01*
X216641Y127559D01*
X216738Y127360D01*
X216830Y127159D01*
X216917Y126956D01*
X216999Y126751D01*
X217076Y126544D01*
X217148Y126335D01*
X217214Y126125D01*
X217276Y125912D01*
X217332Y125699D01*
X217383Y125484D01*
X217429Y125268D01*
X217469Y125051D01*
X217505Y124833D01*
X217534Y124614D01*
X217559Y124394D01*
X217578Y124174D01*
X217591Y123954D01*
X217599Y123733D01*
X217602Y123512D01*
X217599Y123291D01*
X217591Y123070D01*
X217578Y122850D01*
X217559Y122630D01*
X217534Y122410D01*
X217505Y122191D01*
X217469Y121973D01*
X217429Y121756D01*
X217383Y121540D01*
X217332Y121325D01*
X217276Y121112D01*
X217214Y120899D01*
X217148Y120689D01*
X217076Y120480D01*
X216999Y120273D01*
X216917Y120068D01*
X216830Y119865D01*
X216738Y119664D01*
X216641Y119465D01*
X216539Y119269D01*
X216433Y119076D01*
X216322Y118885D01*
X216206Y118697D01*
X216085Y118512D01*
X215960Y118330D01*
X215831Y118151D01*
X215697Y117975D01*
X215559Y117802D01*
X215417Y117633D01*
X215271Y117468D01*
X215120Y117306D01*
X214966Y117148D01*
X214808Y116994D01*
X214646Y116843D01*
X214481Y116697D01*
X214312Y116555D01*
X214139Y116417D01*
X213963Y116283D01*
X213784Y116154D01*
X213602Y116029D01*
X213417Y115908D01*
X213229Y115792D01*
X213038Y115681D01*
X212845Y115575D01*
X212649Y115473D01*
X212450Y115376D01*
X212249Y115284D01*
X212046Y115197D01*
X211841Y115115D01*
X211634Y115038D01*
X211425Y114966D01*
X211215Y114900D01*
X211002Y114838D01*
X210789Y114782D01*
X210574Y114731D01*
X210358Y114685D01*
X210141Y114645D01*
X209923Y114609D01*
X209704Y114580D01*
X209484Y114555D01*
X209264Y114536D01*
X209044Y114523D01*
X208823Y114515D01*
X208602Y114512D01*
X208381Y114515D01*
X208160Y114523D01*
X207940Y114536D01*
X207720Y114555D01*
X207500Y114580D01*
X207281Y114609D01*
X207063Y114645D01*
X206846Y114685D01*
X206630Y114731D01*
X206415Y114782D01*
X206202Y114838D01*
X205989Y114900D01*
X205779Y114966D01*
X205570Y115038D01*
X205363Y115115D01*
X205158Y115197D01*
X204955Y115284D01*
X204754Y115376D01*
X204555Y115473D01*
X204359Y115575D01*
X204166Y115681D01*
X203975Y115792D01*
X203787Y115908D01*
X203602Y116029D01*
X203420Y116154D01*
X203241Y116283D01*
X203065Y116417D01*
X202892Y116555D01*
X202723Y116697D01*
X202558Y116843D01*
X202396Y116994D01*
X202238Y117148D01*
X202084Y117306D01*
X201933Y117468D01*
X201787Y117633D01*
X201645Y117802D01*
X201507Y117975D01*
X201373Y118151D01*
X201244Y118330D01*
X201119Y118512D01*
X200998Y118697D01*
X200882Y118885D01*
X200771Y119076D01*
X200665Y119269D01*
X200563Y119465D01*
X200466Y119664D01*
X200374Y119865D01*
X200287Y120068D01*
X200205Y120273D01*
X200128Y120480D01*
X200056Y120689D01*
X199990Y120899D01*
X199928Y121112D01*
X199872Y121325D01*
X199821Y121540D01*
X199775Y121756D01*
X199735Y121973D01*
X199699Y122191D01*
X199670Y122410D01*
X199645Y122630D01*
X199626Y122850D01*
X199613Y123070D01*
X199605Y123291D01*
X199602Y123512D01*
D12*
X50514Y224444D02*
X50514Y252384D01*
X63214Y252384D01*
X63214Y224444D01*
X50514Y224444D01*
D11*
X68744Y222117D02*
X68813Y222115D01*
X68881Y222110D01*
X68949Y222100D01*
X69017Y222087D01*
X69084Y222071D01*
X69150Y222051D01*
X69214Y222027D01*
X69277Y222000D01*
X69339Y221969D01*
X69399Y221935D01*
X69457Y221898D01*
X69513Y221858D01*
X69566Y221815D01*
X69617Y221769D01*
X69666Y221720D01*
X69712Y221669D01*
X69755Y221616D01*
X69795Y221560D01*
X69832Y221502D01*
X69866Y221442D01*
X69897Y221380D01*
X69924Y221317D01*
X69948Y221253D01*
X69968Y221187D01*
X69984Y221120D01*
X69997Y221052D01*
X70007Y220984D01*
X70012Y220916D01*
X70014Y220847D01*
X70014Y214497D01*
X70012Y214428D01*
X70007Y214360D01*
X69997Y214292D01*
X69984Y214224D01*
X69968Y214157D01*
X69948Y214091D01*
X69924Y214027D01*
X69897Y213964D01*
X69866Y213902D01*
X69832Y213842D01*
X69795Y213784D01*
X69755Y213728D01*
X69712Y213675D01*
X69666Y213624D01*
X69617Y213575D01*
X69566Y213529D01*
X69513Y213486D01*
X69457Y213446D01*
X69399Y213409D01*
X69339Y213375D01*
X69277Y213344D01*
X69214Y213317D01*
X69150Y213293D01*
X69084Y213273D01*
X69017Y213257D01*
X68949Y213244D01*
X68881Y213234D01*
X68813Y213229D01*
X68744Y213227D01*
X53504Y213227D01*
X53435Y213229D01*
X53367Y213234D01*
X53299Y213244D01*
X53231Y213257D01*
X53164Y213273D01*
X53098Y213293D01*
X53034Y213317D01*
X52971Y213344D01*
X52909Y213375D01*
X52849Y213409D01*
X52791Y213446D01*
X52735Y213486D01*
X52682Y213529D01*
X52631Y213575D01*
X52582Y213624D01*
X52536Y213675D01*
X52493Y213728D01*
X52453Y213784D01*
X52416Y213842D01*
X52382Y213902D01*
X52351Y213964D01*
X52324Y214027D01*
X52300Y214091D01*
X52280Y214157D01*
X52264Y214224D01*
X52251Y214292D01*
X52241Y214360D01*
X52236Y214428D01*
X52234Y214497D01*
X52234Y220847D01*
X52236Y220916D01*
X52241Y220984D01*
X52251Y221052D01*
X52264Y221120D01*
X52280Y221187D01*
X52300Y221253D01*
X52324Y221317D01*
X52351Y221380D01*
X52382Y221442D01*
X52416Y221502D01*
X52453Y221560D01*
X52493Y221616D01*
X52536Y221669D01*
X52582Y221720D01*
X52631Y221769D01*
X52682Y221815D01*
X52735Y221858D01*
X52791Y221898D01*
X52849Y221935D01*
X52909Y221969D01*
X52971Y222000D01*
X53034Y222027D01*
X53098Y222051D01*
X53164Y222071D01*
X53231Y222087D01*
X53299Y222100D01*
X53367Y222110D01*
X53435Y222115D01*
X53504Y222117D01*
X68744Y222117D01*
D12*
X58640Y211378D02*
X58640Y183438D01*
X58640Y211378D02*
X71340Y211378D01*
X71340Y183438D01*
X58640Y183438D01*
D18*
X241248Y190732D03*
X229648Y190732D03*
D12*
X250224Y207468D02*
X250224Y235408D01*
X250224Y207468D02*
X237524Y207468D01*
X237524Y235408D01*
X250224Y235408D01*
X235492Y235408D02*
X235492Y207468D01*
X222792Y207468D01*
X222792Y235408D01*
X235492Y235408D01*
X101920Y227530D02*
X73980Y227530D01*
X73980Y240230D01*
X101920Y240230D01*
X101920Y227530D01*
X101920Y213376D02*
X73980Y213376D01*
X73980Y226076D01*
X101920Y226076D01*
X101920Y213376D01*
X101920Y199222D02*
X73980Y199222D01*
X73980Y211922D01*
X101920Y211922D01*
X101920Y199222D01*
D17*
X234500Y52012D02*
X234500Y13012D01*
X205500Y13012D01*
X205500Y52012D01*
X234500Y52012D01*
X211000Y32512D02*
X211003Y32733D01*
X211011Y32954D01*
X211024Y33174D01*
X211043Y33394D01*
X211068Y33614D01*
X211097Y33833D01*
X211133Y34051D01*
X211173Y34268D01*
X211219Y34484D01*
X211270Y34699D01*
X211326Y34912D01*
X211388Y35125D01*
X211454Y35335D01*
X211526Y35544D01*
X211603Y35751D01*
X211685Y35956D01*
X211772Y36159D01*
X211864Y36360D01*
X211961Y36559D01*
X212063Y36755D01*
X212169Y36948D01*
X212280Y37139D01*
X212396Y37327D01*
X212517Y37512D01*
X212642Y37694D01*
X212771Y37873D01*
X212905Y38049D01*
X213043Y38222D01*
X213185Y38391D01*
X213331Y38556D01*
X213482Y38718D01*
X213636Y38876D01*
X213794Y39030D01*
X213956Y39181D01*
X214121Y39327D01*
X214290Y39469D01*
X214463Y39607D01*
X214639Y39741D01*
X214818Y39870D01*
X215000Y39995D01*
X215185Y40116D01*
X215373Y40232D01*
X215564Y40343D01*
X215757Y40449D01*
X215953Y40551D01*
X216152Y40648D01*
X216353Y40740D01*
X216556Y40827D01*
X216761Y40909D01*
X216968Y40986D01*
X217177Y41058D01*
X217387Y41124D01*
X217600Y41186D01*
X217813Y41242D01*
X218028Y41293D01*
X218244Y41339D01*
X218461Y41379D01*
X218679Y41415D01*
X218898Y41444D01*
X219118Y41469D01*
X219338Y41488D01*
X219558Y41501D01*
X219779Y41509D01*
X220000Y41512D01*
X220221Y41509D01*
X220442Y41501D01*
X220662Y41488D01*
X220882Y41469D01*
X221102Y41444D01*
X221321Y41415D01*
X221539Y41379D01*
X221756Y41339D01*
X221972Y41293D01*
X222187Y41242D01*
X222400Y41186D01*
X222613Y41124D01*
X222823Y41058D01*
X223032Y40986D01*
X223239Y40909D01*
X223444Y40827D01*
X223647Y40740D01*
X223848Y40648D01*
X224047Y40551D01*
X224243Y40449D01*
X224436Y40343D01*
X224627Y40232D01*
X224815Y40116D01*
X225000Y39995D01*
X225182Y39870D01*
X225361Y39741D01*
X225537Y39607D01*
X225710Y39469D01*
X225879Y39327D01*
X226044Y39181D01*
X226206Y39030D01*
X226364Y38876D01*
X226518Y38718D01*
X226669Y38556D01*
X226815Y38391D01*
X226957Y38222D01*
X227095Y38049D01*
X227229Y37873D01*
X227358Y37694D01*
X227483Y37512D01*
X227604Y37327D01*
X227720Y37139D01*
X227831Y36948D01*
X227937Y36755D01*
X228039Y36559D01*
X228136Y36360D01*
X228228Y36159D01*
X228315Y35956D01*
X228397Y35751D01*
X228474Y35544D01*
X228546Y35335D01*
X228612Y35125D01*
X228674Y34912D01*
X228730Y34699D01*
X228781Y34484D01*
X228827Y34268D01*
X228867Y34051D01*
X228903Y33833D01*
X228932Y33614D01*
X228957Y33394D01*
X228976Y33174D01*
X228989Y32954D01*
X228997Y32733D01*
X229000Y32512D01*
X228997Y32291D01*
X228989Y32070D01*
X228976Y31850D01*
X228957Y31630D01*
X228932Y31410D01*
X228903Y31191D01*
X228867Y30973D01*
X228827Y30756D01*
X228781Y30540D01*
X228730Y30325D01*
X228674Y30112D01*
X228612Y29899D01*
X228546Y29689D01*
X228474Y29480D01*
X228397Y29273D01*
X228315Y29068D01*
X228228Y28865D01*
X228136Y28664D01*
X228039Y28465D01*
X227937Y28269D01*
X227831Y28076D01*
X227720Y27885D01*
X227604Y27697D01*
X227483Y27512D01*
X227358Y27330D01*
X227229Y27151D01*
X227095Y26975D01*
X226957Y26802D01*
X226815Y26633D01*
X226669Y26468D01*
X226518Y26306D01*
X226364Y26148D01*
X226206Y25994D01*
X226044Y25843D01*
X225879Y25697D01*
X225710Y25555D01*
X225537Y25417D01*
X225361Y25283D01*
X225182Y25154D01*
X225000Y25029D01*
X224815Y24908D01*
X224627Y24792D01*
X224436Y24681D01*
X224243Y24575D01*
X224047Y24473D01*
X223848Y24376D01*
X223647Y24284D01*
X223444Y24197D01*
X223239Y24115D01*
X223032Y24038D01*
X222823Y23966D01*
X222613Y23900D01*
X222400Y23838D01*
X222187Y23782D01*
X221972Y23731D01*
X221756Y23685D01*
X221539Y23645D01*
X221321Y23609D01*
X221102Y23580D01*
X220882Y23555D01*
X220662Y23536D01*
X220442Y23523D01*
X220221Y23515D01*
X220000Y23512D01*
X219779Y23515D01*
X219558Y23523D01*
X219338Y23536D01*
X219118Y23555D01*
X218898Y23580D01*
X218679Y23609D01*
X218461Y23645D01*
X218244Y23685D01*
X218028Y23731D01*
X217813Y23782D01*
X217600Y23838D01*
X217387Y23900D01*
X217177Y23966D01*
X216968Y24038D01*
X216761Y24115D01*
X216556Y24197D01*
X216353Y24284D01*
X216152Y24376D01*
X215953Y24473D01*
X215757Y24575D01*
X215564Y24681D01*
X215373Y24792D01*
X215185Y24908D01*
X215000Y25029D01*
X214818Y25154D01*
X214639Y25283D01*
X214463Y25417D01*
X214290Y25555D01*
X214121Y25697D01*
X213956Y25843D01*
X213794Y25994D01*
X213636Y26148D01*
X213482Y26306D01*
X213331Y26468D01*
X213185Y26633D01*
X213043Y26802D01*
X212905Y26975D01*
X212771Y27151D01*
X212642Y27330D01*
X212517Y27512D01*
X212396Y27697D01*
X212280Y27885D01*
X212169Y28076D01*
X212063Y28269D01*
X211961Y28465D01*
X211864Y28664D01*
X211772Y28865D01*
X211685Y29068D01*
X211603Y29273D01*
X211526Y29480D01*
X211454Y29689D01*
X211388Y29899D01*
X211326Y30112D01*
X211270Y30325D01*
X211219Y30540D01*
X211173Y30756D01*
X211133Y30973D01*
X211097Y31191D01*
X211068Y31410D01*
X211043Y31630D01*
X211024Y31850D01*
X211011Y32070D01*
X211003Y32291D01*
X211000Y32512D01*
D12*
X220758Y163020D02*
X248698Y163020D01*
X248698Y150320D01*
X220758Y150320D01*
X220758Y163020D01*
D17*
X37660Y60016D02*
X7660Y60016D01*
X7660Y120016D01*
X37660Y120016D01*
X37660Y60016D01*
D19*
X43978Y65632D03*
D12*
X219628Y207612D02*
X219628Y233012D01*
X219628Y207612D02*
X168828Y207612D01*
X168828Y233012D01*
X219628Y233012D01*
X195408Y205012D02*
X195408Y177072D01*
X182708Y177072D01*
X182708Y205012D01*
X195408Y205012D01*
X209722Y204944D02*
X209722Y177004D01*
X197022Y177004D01*
X197022Y204944D01*
X209722Y204944D01*
D17*
X260318Y120016D02*
X290318Y120016D01*
X290318Y60016D01*
X260318Y60016D01*
X260318Y120016D01*
D19*
X254000Y114400D03*
D12*
X248666Y165100D02*
X220726Y165100D01*
X220726Y177800D01*
X248666Y177800D01*
X248666Y165100D01*
D17*
X65500Y52012D02*
X65500Y13012D01*
X65500Y52012D02*
X94500Y52012D01*
X94500Y13012D01*
X65500Y13012D01*
X71000Y32512D02*
X71003Y32733D01*
X71011Y32954D01*
X71024Y33174D01*
X71043Y33394D01*
X71068Y33614D01*
X71097Y33833D01*
X71133Y34051D01*
X71173Y34268D01*
X71219Y34484D01*
X71270Y34699D01*
X71326Y34912D01*
X71388Y35125D01*
X71454Y35335D01*
X71526Y35544D01*
X71603Y35751D01*
X71685Y35956D01*
X71772Y36159D01*
X71864Y36360D01*
X71961Y36559D01*
X72063Y36755D01*
X72169Y36948D01*
X72280Y37139D01*
X72396Y37327D01*
X72517Y37512D01*
X72642Y37694D01*
X72771Y37873D01*
X72905Y38049D01*
X73043Y38222D01*
X73185Y38391D01*
X73331Y38556D01*
X73482Y38718D01*
X73636Y38876D01*
X73794Y39030D01*
X73956Y39181D01*
X74121Y39327D01*
X74290Y39469D01*
X74463Y39607D01*
X74639Y39741D01*
X74818Y39870D01*
X75000Y39995D01*
X75185Y40116D01*
X75373Y40232D01*
X75564Y40343D01*
X75757Y40449D01*
X75953Y40551D01*
X76152Y40648D01*
X76353Y40740D01*
X76556Y40827D01*
X76761Y40909D01*
X76968Y40986D01*
X77177Y41058D01*
X77387Y41124D01*
X77600Y41186D01*
X77813Y41242D01*
X78028Y41293D01*
X78244Y41339D01*
X78461Y41379D01*
X78679Y41415D01*
X78898Y41444D01*
X79118Y41469D01*
X79338Y41488D01*
X79558Y41501D01*
X79779Y41509D01*
X80000Y41512D01*
X80221Y41509D01*
X80442Y41501D01*
X80662Y41488D01*
X80882Y41469D01*
X81102Y41444D01*
X81321Y41415D01*
X81539Y41379D01*
X81756Y41339D01*
X81972Y41293D01*
X82187Y41242D01*
X82400Y41186D01*
X82613Y41124D01*
X82823Y41058D01*
X83032Y40986D01*
X83239Y40909D01*
X83444Y40827D01*
X83647Y40740D01*
X83848Y40648D01*
X84047Y40551D01*
X84243Y40449D01*
X84436Y40343D01*
X84627Y40232D01*
X84815Y40116D01*
X85000Y39995D01*
X85182Y39870D01*
X85361Y39741D01*
X85537Y39607D01*
X85710Y39469D01*
X85879Y39327D01*
X86044Y39181D01*
X86206Y39030D01*
X86364Y38876D01*
X86518Y38718D01*
X86669Y38556D01*
X86815Y38391D01*
X86957Y38222D01*
X87095Y38049D01*
X87229Y37873D01*
X87358Y37694D01*
X87483Y37512D01*
X87604Y37327D01*
X87720Y37139D01*
X87831Y36948D01*
X87937Y36755D01*
X88039Y36559D01*
X88136Y36360D01*
X88228Y36159D01*
X88315Y35956D01*
X88397Y35751D01*
X88474Y35544D01*
X88546Y35335D01*
X88612Y35125D01*
X88674Y34912D01*
X88730Y34699D01*
X88781Y34484D01*
X88827Y34268D01*
X88867Y34051D01*
X88903Y33833D01*
X88932Y33614D01*
X88957Y33394D01*
X88976Y33174D01*
X88989Y32954D01*
X88997Y32733D01*
X89000Y32512D01*
X88997Y32291D01*
X88989Y32070D01*
X88976Y31850D01*
X88957Y31630D01*
X88932Y31410D01*
X88903Y31191D01*
X88867Y30973D01*
X88827Y30756D01*
X88781Y30540D01*
X88730Y30325D01*
X88674Y30112D01*
X88612Y29899D01*
X88546Y29689D01*
X88474Y29480D01*
X88397Y29273D01*
X88315Y29068D01*
X88228Y28865D01*
X88136Y28664D01*
X88039Y28465D01*
X87937Y28269D01*
X87831Y28076D01*
X87720Y27885D01*
X87604Y27697D01*
X87483Y27512D01*
X87358Y27330D01*
X87229Y27151D01*
X87095Y26975D01*
X86957Y26802D01*
X86815Y26633D01*
X86669Y26468D01*
X86518Y26306D01*
X86364Y26148D01*
X86206Y25994D01*
X86044Y25843D01*
X85879Y25697D01*
X85710Y25555D01*
X85537Y25417D01*
X85361Y25283D01*
X85182Y25154D01*
X85000Y25029D01*
X84815Y24908D01*
X84627Y24792D01*
X84436Y24681D01*
X84243Y24575D01*
X84047Y24473D01*
X83848Y24376D01*
X83647Y24284D01*
X83444Y24197D01*
X83239Y24115D01*
X83032Y24038D01*
X82823Y23966D01*
X82613Y23900D01*
X82400Y23838D01*
X82187Y23782D01*
X81972Y23731D01*
X81756Y23685D01*
X81539Y23645D01*
X81321Y23609D01*
X81102Y23580D01*
X80882Y23555D01*
X80662Y23536D01*
X80442Y23523D01*
X80221Y23515D01*
X80000Y23512D01*
X79779Y23515D01*
X79558Y23523D01*
X79338Y23536D01*
X79118Y23555D01*
X78898Y23580D01*
X78679Y23609D01*
X78461Y23645D01*
X78244Y23685D01*
X78028Y23731D01*
X77813Y23782D01*
X77600Y23838D01*
X77387Y23900D01*
X77177Y23966D01*
X76968Y24038D01*
X76761Y24115D01*
X76556Y24197D01*
X76353Y24284D01*
X76152Y24376D01*
X75953Y24473D01*
X75757Y24575D01*
X75564Y24681D01*
X75373Y24792D01*
X75185Y24908D01*
X75000Y25029D01*
X74818Y25154D01*
X74639Y25283D01*
X74463Y25417D01*
X74290Y25555D01*
X74121Y25697D01*
X73956Y25843D01*
X73794Y25994D01*
X73636Y26148D01*
X73482Y26306D01*
X73331Y26468D01*
X73185Y26633D01*
X73043Y26802D01*
X72905Y26975D01*
X72771Y27151D01*
X72642Y27330D01*
X72517Y27512D01*
X72396Y27697D01*
X72280Y27885D01*
X72169Y28076D01*
X72063Y28269D01*
X71961Y28465D01*
X71864Y28664D01*
X71772Y28865D01*
X71685Y29068D01*
X71603Y29273D01*
X71526Y29480D01*
X71454Y29689D01*
X71388Y29899D01*
X71326Y30112D01*
X71270Y30325D01*
X71219Y30540D01*
X71173Y30756D01*
X71133Y30973D01*
X71097Y31191D01*
X71068Y31410D01*
X71043Y31630D01*
X71024Y31850D01*
X71011Y32070D01*
X71003Y32291D01*
X71000Y32512D01*
D12*
X61350Y30030D02*
X61350Y57970D01*
X61350Y30030D02*
X48650Y30030D01*
X48650Y57970D01*
X61350Y57970D01*
M02*
